/* XPM */
static char *batt[] = {
/* columns rows colors chars-per-pixel */
"32 32 2 1 ",
"  c black",
". c #556C85",
/* pixels */
"            ........            ",
"            ........            ",
"            ........            ",
"            ........            ",
"    ........................    ",
"    ........................    ",
"    ........................    ",
"    ........................    ",
"    ....                ....    ",
"    ....                ....    ",
"    ....                ....    ",
"    ....                ....    ",
"    ....    ........    ....    ",
"    ....    ........    ....    ",
"    ....    ........    ....    ",
"    ....    ........    ....    ",
"    ....    ........    ....    ",
"    ....    ........    ....    ",
"    ....    ........    ....    ",
"    ....    ........    ....    ",
"    ....    ........    ....    ",
"    ....    ........    ....    ",
"    ....    ........    ....    ",
"    ....    ........    ....    ",
"    ....                ....    ",
"    ....                ....    ",
"    ....                ....    ",
"    ....                ....    ",
"    ........................    ",
"    ........................    ",
"    ........................    ",
"    ........................    "
};
