/* XPM */
static char *scaled_cpu[] = {
/* columns rows colors chars-per-pixel */
"48 48 98 2 ",
"   c black",
".  c #323627",
"X  c #333728",
"o  c #35392A",
"O  c #393D2E",
"+  c #393D2F",
"@  c #3A3E30",
"#  c #3B402C",
"$  c #3D4132",
"%  c #3F4530",
"&  c #3E4234",
"*  c #434A33",
"=  c #444A33",
"-  c #464D35",
";  c #474E36",
":  c #4E553C",
">  c #51573F",
",  c #535B3F",
"<  c #545C40",
"1  c #565F42",
"2  c #585E47",
"3  c #5A6344",
"4  c #5B6445",
"5  c #5A614A",
"6  c #5D634D",
"7  c #5F6848",
"8  c #616A49",
"9  c #636D4B",
"0  c #646D4C",
"q  c #656F4D",
"w  c #66704D",
"e  c #67714E",
"r  c #68724F",
"t  c #626853",
"y  c #696F5A",
"u  c #696F5B",
"i  c #6B7551",
"p  c #6C7752",
"a  c #6E7953",
"s  c #6F7A54",
"d  c #6F7A55",
"f  c #727D57",
"g  c #727D58",
"h  c #747F5A",
"j  c #757F5D",
"k  c #6E7460",
"l  c #737966",
"z  c #7A7F6D",
"x  c #77815D",
"c  c #78835F",
"v  c #798360",
"b  c #7A8461",
"n  c #7C8664",
"m  c #7D8765",
"M  c #7E8765",
"N  c #7A806D",
"B  c #7D8270",
"V  c #808A69",
"C  c #838C6B",
"Z  c #848D6D",
"A  c #858E6E",
"S  c #808574",
"D  c #838877",
"F  c #869070",
"G  c #879071",
"H  c #8A9375",
"J  c #8D9577",
"K  c #90997B",
"L  c #929B7E",
"P  c #979F84",
"I  c #95948A",
"U  c #95958C",
"Y  c #A2A198",
"T  c #ADADA3",
"R  c #BDBDB6",
"E  c #D7D19A",
"W  c #D9D39C",
"Q  c #DDD69E",
"!  c #C4C3BA",
"~  c #C5C5BC",
"^  c #E4DDA4",
"/  c #E5DEA4",
"(  c #E8E1A6",
")  c #E9E2A8",
"_  c #EAE4AB",
"`  c #EDE6AA",
"'  c #EBE4AC",
"]  c #EDE6AD",
"[  c #EEE7B0",
"{  c #C9C8C0",
"}  c #CCCBC3",
"|  c #D0D0C7",
" . c #D6D5CE",
".. c #DEDED7",
"X. c #E0DFDA",
"o. c #E0DFDC",
"O. c #E0E0DC",
"+. c None",
/* pixels */
"+.+.+.+.+.+.+.+.+.+.+.+.+.+.+.+.+.+.+.+.+.+.+.+.+.+.+.+.+.+.+.+.+.+.+.+.+.+.+.+.+.+.+.+.+.+.+.+.",
"+.+.+.+.+.+.+.+.+.+.+.+.+.+.+.+.+.+.+.+.+.+.+.+.+.+.+.+.+.+.+.+.+.+.+.+.+.+.+.+.+.+.+.+.+.+.+.+.",
"+.+.+.+.+.+.+.+.+.+.+.+.+.+.+.+.+.+.+.+.+.+.+.+.+.+.+.+.+.+.+.+.+.+.+.+.+.+.+.+.+.+.+.+.+.+.+.+.",
"+.+.+.+.+.+.+.+.+.+.+.+.+.+.+.+.+.+.+.+.+.+.+.+.+.+.+.+.+.+.+.+.+.+.+.+.+.+.+.+.+.+.+.+.+.+.+.+.",
"+.+.+.+.+.+.+.+.+.+.+.+.+.+.+.+.+.+.+.+.+.+.+.+.+.+.+.+.+.+.+.+.+.+.+.+.+.+.+.+.+.+.+.+.+.+.+.+.",
"+.+.+.+.+.+.+.+.+.+.+.+.+.+.+.+.+.+.+.+.+.+.+.+.+.+.+.+.+.+.+.+.+.+.+.+.+.+.+.+.+.+.+.+.+.+.+.+.",
"+.+.+.+.+.+.+.+.                                                +.+.+.+.+.+.+.+.+.+.+.+.+.+.+.+.",
"+.+.+.+.+.+.+.+.                                                +.+.+.+.+.+.+.+.+.+.+.+.+.+.+.+.",
"+.+.+.+.+.+.+.+.    j j ' ' x x ' ' x x ' ' h h ' ' h h ' '     +.+.+.+.+.+.+.+.+.+.+.+.+.+.+.+.",
"+.+.+.+.+.+.+.+.    j j ' ' x x ' ' x x ' ' h h ' ' h h ' '     +.+.+.+.+.+.+.+.+.+.+.+.+.+.+.+.",
"+.+.+.+.+.+.+.+.    p p / / p p / / p p ( ( i i ^ ^ a a ` `     +.+.+.+.+.+.+.+.+.+.+.+.+.+.+.+.",
"+.+.+.+.+.+.+.+.    p p / / p p / / p p ( ( i i ^ ^ a a ` `     +.+.+.+.+.+.+.+.+.+.+.+.+.+.+.+.",
"+.+.+.+.+.+.    X X . . o o + + $ $ @ @ $ $ @ @ o o . . o o . .     +.+.+.+.+.+.+.+.+.+.+.+.+.+.",
"+.+.+.+.+.+.    X X . . o o + + $ $ @ @ $ $ @ @ o o . . o o . .     +.+.+.+.+.+.+.+.+.+.+.+.+.+.",
"            X X N N D D N N S S z z l l u u y y y y 6 6 5 5 > > X X             +.+.+.+.+.+.+.+.",
"            X X N N D D N N S S z z l l u u y y y y 6 6 5 5 > > X X             +.+.+.+.+.+.+.+.",
"    ] ] ( ( o o N N P P L L H H H H Z Z G G C C v v f f p p ; ; . . Q Q ` `     +.+.+.+.+.+.+.+.",
"    ] ] ( ( o o N N P P L L H H H H Z Z G G C C v v f f p p ; ; . . Q Q ` `     +.+.+.+.+.+.+.+.",
"    x x a a O O B B K K A A n n V V V V x x g g s s a a r r - - . . r r s s     +.+.+.+.+.+.+.+.",
"    x x a a O O B B K K A A n n V V V V x x g g s s a a r r - - . . r r s s     +.+.+.+.+.+.+.+.",
"    _ _ ) ) + + N N J J Z Z m m O.O.O.O.X.X.| | s s i i 8 8 * * . . E E ` `     +.+.+.+.+.+.+.+.",
"    _ _ ) ) + + N N J J Z Z m m O.O.O.O.X.X.| | s s i i 8 8 * * . . E E ` `     +.+.+.+.+.+.+.+.",
"    x x d d $ $ B B J J M M n n o.o. . .} } ! ! p p p p 4 4 - - . . r r a a     +.+.+.+.+.+.+.+.",
"    x x d d $ $ B B J J M M n n o.o. . .} } ! ! p p p p 4 4 - - . . r r a a     +.+.+.+.+.+.+.+.",
"    ' ' ( ( $ $ z z F F x x b b ....{ { ~ ~ Y Y i i w w 3 3 - - . . Q Q ) )     +.+.+.+.+.+.+.+.",
"    ' ' ( ( $ $ z z F F x x b b ....{ { ~ ~ Y Y i i w w 3 3 - - . . Q Q ) )     +.+.+.+.+.+.+.+.",
"    c c f f & & k k V V b b g g R R T T U U I I 9 9 7 7 3 3 - - X X w w s s     +.+.+.+.+.+.+.+.",
"    c c f f & & k k V V b b g g R R T T U U I I 9 9 7 7 3 3 - - X X w w s s     +.+.+.+.+.+.+.+.",
"    [ [ ) ) + + t t m m g g s s s s s s s s q q 7 7 1 1 , , - - . . E E ` `     +.+.+.+.+.+.+.+.",
"    [ [ ) ) + + t t m m g g s s s s s s s s q q 7 7 1 1 , , - - . . E E ` `     +.+.+.+.+.+.+.+.",
"    x x i i X X 2 2 x x s s i i 0 0 8 8 7 7 < < < < , , , , - - . . q q s s     +.+.+.+.+.+.+.+.",
"    x x i i X X 2 2 x x s s i i 0 0 8 8 7 7 < < < < , , , , - - . . q q s s     +.+.+.+.+.+.+.+.",
"            X X > > : : - - * * % % # # # # # # % % * * = = - - . .             +.+.+.+.+.+.+.+.",
"            X X > > : : - - * * % % # # # # # # % % * * = = - - . .             +.+.+.+.+.+.+.+.",
"+.+.+.+.+.+.    X X . . . . . . X X X X X X . . . . X X X X X X     +.+.+.+.+.+.+.+.+.+.+.+.+.+.",
"+.+.+.+.+.+.    X X . . . . . . X X X X X X . . . . X X X X X X     +.+.+.+.+.+.+.+.+.+.+.+.+.+.",
"+.+.+.+.+.+.+.+.    e e Q Q w w E E w w E E 9 9 E E r r W W     +.+.+.+.+.+.+.+.+.+.+.+.+.+.+.+.",
"+.+.+.+.+.+.+.+.    e e Q Q w w E E w w E E 9 9 E E r r W W     +.+.+.+.+.+.+.+.+.+.+.+.+.+.+.+.",
"+.+.+.+.+.+.+.+.    f f ` ` s s ` ` f f ` ` f f ` ` s s ` `     +.+.+.+.+.+.+.+.+.+.+.+.+.+.+.+.",
"+.+.+.+.+.+.+.+.    f f ` ` s s ` ` f f ` ` f f ` ` s s ` `     +.+.+.+.+.+.+.+.+.+.+.+.+.+.+.+.",
"+.+.+.+.+.+.+.+.                                                +.+.+.+.+.+.+.+.+.+.+.+.+.+.+.+.",
"+.+.+.+.+.+.+.+.                                                +.+.+.+.+.+.+.+.+.+.+.+.+.+.+.+.",
"+.+.+.+.+.+.+.+.+.+.+.+.+.+.+.+.+.+.+.+.+.+.+.+.+.+.+.+.+.+.+.+.+.+.+.+.+.+.+.+.+.+.+.+.+.+.+.+.",
"+.+.+.+.+.+.+.+.+.+.+.+.+.+.+.+.+.+.+.+.+.+.+.+.+.+.+.+.+.+.+.+.+.+.+.+.+.+.+.+.+.+.+.+.+.+.+.+.",
"+.+.+.+.+.+.+.+.+.+.+.+.+.+.+.+.+.+.+.+.+.+.+.+.+.+.+.+.+.+.+.+.+.+.+.+.+.+.+.+.+.+.+.+.+.+.+.+.",
"+.+.+.+.+.+.+.+.+.+.+.+.+.+.+.+.+.+.+.+.+.+.+.+.+.+.+.+.+.+.+.+.+.+.+.+.+.+.+.+.+.+.+.+.+.+.+.+.",
"+.+.+.+.+.+.+.+.+.+.+.+.+.+.+.+.+.+.+.+.+.+.+.+.+.+.+.+.+.+.+.+.+.+.+.+.+.+.+.+.+.+.+.+.+.+.+.+.",
"+.+.+.+.+.+.+.+.+.+.+.+.+.+.+.+.+.+.+.+.+.+.+.+.+.+.+.+.+.+.+.+.+.+.+.+.+.+.+.+.+.+.+.+.+.+.+.+."
};
