/* XPM */
static char *testdeb[] = {
/* columns rows colors chars-per-pixel */
"50 50 249 2 ",
"   c #000000",
".  c #010000",
"X  c #010100",
"o  c #010001",
"O  c #010101",
"+  c #020001",
"@  c #030001",
"#  c #020101",
"$  c #030101",
"%  c #020102",
"&  c #040101",
"*  c #040002",
"=  c #050002",
"-  c #040102",
";  c #050102",
":  c #060002",
">  c #060102",
",  c #070102",
"<  c #070003",
"1  c #060103",
"2  c #070103",
"3  c #070203",
"4  c #080103",
"5  c #090103",
"6  c #080203",
"7  c #090104",
"8  c #0A0104",
"9  c #0B0104",
"0  c #0D0005",
"q  c #0C0105",
"w  c #0D0105",
"e  c #0E0105",
"r  c #0E0205",
"t  c #0F0106",
"y  c #0E0206",
"u  c #110106",
"i  c #110107",
"p  c #120107",
"a  c #130107",
"s  c #100206",
"d  c #120207",
"f  c #140207",
"g  c #130208",
"h  c #160108",
"j  c #170108",
"k  c #170109",
"l  c #140208",
"z  c #150209",
"x  c #160208",
"c  c #160209",
"v  c #170209",
"b  c #180209",
"n  c #19010A",
"m  c #1B010A",
"M  c #19020A",
"N  c #1B020A",
"B  c #1B020B",
"V  c #1C010A",
"C  c #1C020A",
"Z  c #1D020B",
"A  c #1D030B",
"S  c #1E020B",
"D  c #1F010C",
"F  c #1F020C",
"G  c #23010D",
"H  c #20030C",
"J  c #23020D",
"K  c #23030E",
"L  c #27010F",
"P  c #24020E",
"I  c #24030E",
"U  c #26020E",
"Y  c #28020F",
"T  c #29030F",
"R  c #290210",
"E  c #2A0210",
"W  c #2B0210",
"Q  c #2C0211",
"!  c #2D0211",
"~  c #2E0211",
"^  c #2E0312",
"/  c #2F0312",
"(  c #300212",
")  c #300313",
"_  c #310313",
"`  c #320213",
"'  c #320313",
"]  c #330313",
"[  c #330314",
"{  c #340314",
"}  c #350314",
"|  c #370215",
" . c #380316",
".. c #390316",
"X. c #3A0316",
"o. c #3C0317",
"O. c #3D0317",
"+. c #3E0317",
"@. c #400318",
"#. c #400319",
"$. c #420319",
"%. c #43021A",
"&. c #43031A",
"*. c #44031A",
"=. c #46031B",
"-. c #47031B",
";. c #44041A",
":. c #48031B",
">. c #48041B",
",. c #48031C",
"<. c #49031C",
"1. c #4A031C",
"2. c #4B031D",
"3. c #4C031D",
"4. c #49041C",
"5. c #4A041C",
"6. c #4B041C",
"7. c #4C041D",
"8. c #50031E",
"9. c #52031F",
"0. c #50041E",
"q. c #52041F",
"w. c #540320",
"e. c #570321",
"r. c #520420",
"t. c #540420",
"y. c #550420",
"u. c #560420",
"i. c #560421",
"p. c #580321",
"a. c #5B0323",
"s. c #5C0323",
"d. c #580421",
"f. c #580422",
"g. c #5A0422",
"h. c #5A0423",
"j. c #5C0423",
"k. c #5D0424",
"l. c #5F0424",
"z. c #600424",
"x. c #600425",
"c. c #610425",
"v. c #620425",
"b. c #630426",
"n. c #640426",
"m. c #670427",
"M. c #690428",
"N. c #680528",
"B. c #690528",
"V. c #6B0429",
"C. c #6D0429",
"Z. c #6D0529",
"A. c #6E042A",
"S. c #6F042A",
"D. c #6E052A",
"F. c #70042B",
"G. c #72042B",
"H. c #73042B",
"J. c #72052B",
"K. c #72042C",
"L. c #72052C",
"P. c #74052C",
"I. c #75052D",
"U. c #76052D",
"Y. c #79052D",
"T. c #78052E",
"R. c #79052E",
"E. c #7A052F",
"W. c #7B052F",
"Q. c #7D052F",
"!. c #7D0530",
"~. c #7E0530",
"^. c #7F0530",
"/. c #7E0531",
"(. c #800531",
"). c #820531",
"_. c #830532",
"`. c #840533",
"'. c #850533",
"]. c #870533",
"[. c #880534",
"{. c #890534",
"}. c #8B0535",
"|. c #8D0536",
" X c #8E0536",
".X c #8F0636",
"XX c #930538",
"oX c #920638",
"OX c #940539",
"+X c #98053A",
"@X c #99053A",
"#X c #9A053B",
"$X c #98063A",
"%X c #99063A",
"&X c #9A063B",
"*X c #9B063B",
"=X c #9E053C",
"-X c #9D063C",
";X c #9E063C",
":X c #9F063C",
">X c #A0063D",
",X c #A1063D",
"<X c #A3063E",
"1X c #A4063F",
"2X c #A5063F",
"3X c #A6063F",
"4X c #A90640",
"5X c #AC0641",
"6X c #AE0642",
"7X c #AF0643",
"8X c #B00643",
"9X c #B10644",
"0X c #B20644",
"qX c #B30644",
"wX c #B60645",
"eX c #B70646",
"rX c #B80646",
"tX c #B90646",
"yX c #B80746",
"uX c #BA0647",
"iX c #BA0747",
"pX c #BC0747",
"aX c #BC0748",
"sX c #BF0649",
"dX c #BF0749",
"fX c #C00649",
"gX c #C00749",
"hX c #C2074A",
"jX c #C3074A",
"kX c #C5074B",
"lX c #C6074B",
"zX c #C8074C",
"xX c #C9074D",
"cX c #CA074D",
"vX c #CB074D",
"bX c #CC074E",
"nX c #CD074E",
"mX c #CE074E",
"MX c #CE074F",
"NX c #CF074F",
"BX c #D1074F",
"VX c #D10750",
"CX c #D20750",
"ZX c #D30750",
"AX c #D40751",
"SX c #D50751",
"DX c #D60751",
"FX c #D60752",
"GX c #D70752",
/* pixels */
"                                                                                                    ",
"                                                                                                    ",
"                                                                                                    ",
"                                                                                                    ",
"                                        . X 2 W k.;.q.t.%.E i + .                                   ",
"                              * 9   . 9 n.4XVXGXGXGXGXGXGXGXGXxX+XQ #                               ",
"                            . o.V & c.cXGXGXGXGXGXGXGXGXGXGXGXGXGXSXy.z 1                           ",
"                          .   9 r.;XGXGXGXGXGXGXGXGXGXGXGXGXGXGXGXGXAXY.) 8                         ",
"                        l [ ( uXGXGXGXGXGXGXAXSXkX&X4XVXSXGXGXGXGXGXGXGX1X{                         ",
"                        j f.CXGXGXGXrXR.&.m - < W O X P E p Q W.nXGXGXGXGXGXw.                      ",
"                      # U.GXGXGXcX_ o .                       . a C.nXGXGXGXCX .                    ",
"                      m.GXGXGX6XE .                                 B 2XGXGXGXhXs                   ",
"                    a zXGXZXv.=                                       ; '.GXGXGX#XQ .               ",
"                  O {.GXGXl.X                                           $ [.GXGXGXSXD               ",
"                  X.FXGXXX+                   F :.i.c.8.$.b . . .         2 8XGXGXGX!.              ",
"                > qXGXfXt                 O a 0.b.W.zXGXGXSX9Xd.s .          .GXGXGXGX}             ",
"              . b.GXAX[ .               O Z.CXGXGXGXGXGXGXGXGXDXwXM.=       # eXGXGXGX|.X           ",
"              x nXGXE..                 x.-X<XGXGXFXGXcX@X%XaXGXGXGXOX+       I.GXGXGXcX>           ",
"              T.GXMXf                 # 7.N.GXFXn.g s $ F =.E J 2.` g...      #.GXGXGXGX(           ",
"            4 xXGX$X.                 t _.CXGXD.o                     _       S GXGXGXGXe.          ",
"            5.GXGXu..               . J.zXGX7Xt.o                     o       w GXGXGXGXF.          ",
"             XGXxXO                 9 cXGXGXdX!                               0 GXGXGXGXK.          ",
"          - lXGX(.X             .   6.GXGXGX=XX                               k GXGXGXGXK.          ",
"          S GXGXz..             +.i ^.GXGXGX@.                                ..GXGX&XjXa.          ",
"          $.GXGXsXe             *.^ |.GXGXgX&                                 L.GXGX5.~.U           ",
"          s.GXGXGXL           ] ' [ 3XBXGX~.                      +         6 jXGXGX1.o.            ",
"          G.GXGX8Xn           ~ P.3 >X&XGXf.G                   n ..      . *.GXGXiXc P             ",
"          K.GXGXV..           O /.A E.g.GXNX,XX   ; O       X %   .       7 uXGXGX,.I o             ",
"          K.GXGX<.              . . }. XqXGXZXh   C Q.K . T h.Z         X S.GXGX3X$ 9               ",
"          K.GXGX`                   `.mX>XGXGXP.. . y 4   e f .         O.AXGXGX!.X                 ",
"          c.GXGX$                   t.SXVXFXGXNXF                     5 5XGXVX[.-                   ",
"          -.GXGXu                   ; qXGXvXMXGX6Xf               q 3.6XGXmXv.8                     ",
"          U GXGXY                     | AXGXiXVXGXtXq.q . a . : Y *XGXGXtX4.] ,                     ",
"          ; bXGX9.                    X / p.0XpXxXGXGXZXxXhXeXZXGXGX X].d [ r                       ",
"          . #XGX1.                      . . 5.yX:X.X6X>X<XBX9XXXN.x.$ r R 2                         ",
"            j.GX>XX                         . o / >.7 5 w * . . . .   @                             ",
"            l ZXFXM                                                                                 ",
"              oXGXB..                                                                               ",
"              / FXA..                                                                               ",
"              .  XbXH                                                                               ",
"                m xXqX.                                                                             ",
"                . 2.AXN                                                                             ",
"                    F.).O                                                                           ",
"                    . H.d.O                                                                         ",
"                      . $.y.#                                                                       ",
"                        . t v                                                                       ",
"                                                                                                    ",
"                                                                                                    ",
"                                                                                                    ",
"                                                                                                    "
};
