/* XPM */
static char *devuan50[] = {
/* columns rows colors chars-per-pixel */
"50 50 30 1 ",
"  c #6E6B83",
". c #706C85",
"X c #706D85",
"o c #716D86",
"O c #716E86",
"+ c #726E87",
"@ c #726F88",
"# c #736F88",
"$ c #736F89",
"% c #737089",
"& c #747089",
"* c #74708A",
"= c #74718A",
"- c #75718A",
"; c #75718B",
": c #76728C",
"> c #76738D",
", c #77738D",
"< c #77738E",
"1 c #78748E",
"2 c #78748F",
"3 c #78758F",
"4 c #79758F",
"5 c #797590",
"6 c #7A7690",
"7 c #7A7691",
"8 c #7A7791",
"9 c #7B7791",
"0 c #7B7792",
"q c None",
/* pixels */
"qqqqqqqqqqqqqqqqqqqqqqqqqqqqqqqqqqqqqqqqqqqqqqqqqq",
"qqqqqqqqqqqqqqqqqqqqqqqqqqqqqqqqqqqqqqqqqqqqqqqqqq",
"qqqqqqqqqqqqqqqqqqqqqqqqqqqqqqqqqqqqqqqqqqqqqqqqqq",
"qqqqqqqqqqqqqqqqqqqqqqqqqqqqqqqqqqqqqqqqqqqqqqqqqq",
"qqqqqqqqqqqqqqqqqqqqqqqqqqqqqqqqqqqqqqqqqqqqqqqqqq",
"qqqqqqqqqqqqqqqqqqqqqqqqqqqqqqqqqqqqqqqqqqqqqqqqqq",
"qqqqqqqqqqqqqqqqqqqqqqqqqqqqqqqqqqqqqqqqqqqqqqqqqq",
"qqqqqqqqqqqqqqqq .Oqqqqqqqqqqqqqqqqqqqqqqqqqqqqqqq",
"qqqqqqqqqqqqqqqqqqq+*;-$qqqqqqqqqqqqqqqqqqqqqqqqqq",
"qqqqqqqqqqqqqqqqqqqqqqq-,,;qqqqqqqqqqqqqqqqqqqqqqq",
"qqqqqqqqqqqqqqqqqqqqqqqqqq:12>Oqqqqqqqqqqqqqqqqqqq",
"qqqqqqqqqqqqqqqqqqqqqqqqqqqq@<64>qqqqqqqqqqqqqqqqq",
"qqqqqqqqqqqqqqqqqqqqqqqqqqqqqqq;583*qqqqqqqqqqqqqq",
"qqqqqqqqqqqqqqqqqqqqqqqqqqqqqqqqq&506:qqqqqqqqqqqq",
"qqqqqqqqqqqqqqqqqqqqqqqqqqqqqqqqqqq-607>qqqqqqqqqq",
"qqqqqqqqqqqqqqqqqqqqqqqqqqqqqqqqqqqqq>006=qqqqqqqq",
"qqqqqqqqqqqqqqqqqqqqqqqqqqqqqqqqqqqqqq*7003qqqqqqq",
"qqqqqqqqqqqqqqqqqqqqqqqqqqqqqqqqqqqqqqq%8007&qqqqq",
"qqqqqqqqqqqqqqqqqqqqqqqqqqqqqqqqqqqqqqqq=0009:qqqq",
"qqqqqqqqqqqqqqqqqqqqqqqqqqqqqqqqqqqqqqqqq10000:qqq",
"qqqqqqqqqqqqqqqqqqqqqqqqqqqqqqqqqqqqqqqqq=00000*qq",
"qqqqqqqqqqqqqqqqqqqqqqqqqqqqqqqqqqqqqqqqq+900006qq",
"qqqqqqqqqqqqqqqqqqqqqqqqqqqqqqqqqqqqqqqqq%000000;q",
"qqqqqqqqqqqqqqqqqqqqqqqqqqqqqqqqqqqqqqqqq,0000002q",
"qqqqqqqqqqqqqqqqqqqqqqqqqqqqqqqqqqqqqqqqX7000000<q",
"qqqqqqqqqqqqqqqqqqqqqqqqqqqqqqqqqqqqqqqq50000009#q",
"qqqqqqqqqqqqqqqqqqqqqqqqqqqqqqqqqqqqqqq500000002qq",
"qqqqqqqqqqqqqqqqqqqqqqqqqqqqqqqqqqqqq#600000007qqq",
"qqqqqqqqqqqqqqqqqqqqqqqqqqqqqqqqqqqq<900000008#qqq",
"qqqqqqqqqqqqqqqqqqqqqqqqqqqqqqqqqq:7000000007@qqqq",
"qqqqqqqqqqqqqqqqqqqqqqqqqqqqqqqq:70000000004oqqqqq",
"qqqqqqqqqqqqqqqqqqqqqqqqqqqqq*170000000009,qqqqqqq",
"qqqqqqqqqqqqqqqqqqqqqqqqqqq:5900000000005#qqqqqqqq",
"qqqqqqqqqqqqqqqqqqqqqqqq:58000000000007:qqqqqqqqqq",
"qqqqqqqqqqqqqqqqqqqq=,590000000000008,qqqqqqqqqqqq",
"qqqqqqqqqqqqqqqq*:27000000000000008,qqqqqqqqqqqqqq",
"qqqqqqqqqqqq=>3690000000000000007>qqqqqqqqqqqqqqqq",
"qqqqqqqqqqq30000000000000000006:qqqqqqqqqqqqqqqqqq",
"qqqqqqqqqq4000000000000000093;qqqqqqqqqqqqqqqqqqqq",
"qqqqqqqqq@0000000000000006<#qqqqqqqqqqqqqqqqqqqqqq",
"qqqqqqqqq#00000000000072-qqqqqqqqqqqqqqqqqqqqqqqqq",
"qqqqqqqqqq70000000094:qqqqqqqqqqqqqqqqqqqqqqqqqqqq",
"qqqqqqqqqq;0000095>qqqqqqqqqqqqqqqqqqqqqqqqqqqqqqq",
"qqqqqqqqqqq*453:qqqqqqqqqqqqqqqqqqqqqqqqqqqqqqqqqq",
"qqqqqqqqqqqqqqqqqqqqqqqqqqqqqqqqqqqqqqqqqqqqqqqqqq",
"qqqqqqqqqqqqqqqqqqqqqqqqqqqqqqqqqqqqqqqqqqqqqqqqqq",
"qqqqqqqqqqqqqqqqqqqqqqqqqqqqqqqqqqqqqqqqqqqqqqqqqq",
"qqqqqqqqqqqqqqqqqqqqqqqqqqqqqqqqqqqqqqqqqqqqqqqqqq",
"qqqqqqqqqqqqqqqqqqqqqqqqqqqqqqqqqqqqqqqqqqqqqqqqqq",
"qqqqqqqqqqqqqqqqqqqqqqqqqqqqqqqqqqqqqqqqqqqqqqqqqq"
};
