/* XPM */
static char *freebsd50[] = {
/* columns rows colors chars-per-pixel */
"50 49 2 1 ",
"  c #B5010F",
". c None",
/* pixels */
".    .............................................",
"       .....................................      ",
"          .......                ........         ",
"            ....                    ...           ",
"           ...                      .             ",
".         ..                    ...              .",
".        ..                     ...              .",
"..      .                       ..              ..",
"..     .                        ..              ..",
"..    .                          .              ..",
"...  ..                          .             ...",
"... ..                            .            ...",
".....                             .           ....",
".....                              .         .....",
"....                                .        . ...",
"....                                 ..     .   ..",
"...                                   ..   ..   ..",
"...                                     .....   ..",
"..                                        ...    .",
"..                                               .",
"..                                               .",
"..                                               .",
"..                                               .",
"..                                               .",
"..                                                ",
"..                                                ",
"..                                               .",
"..                                               .",
"..                                               .",
"..                                               .",
"..                                               .",
"..                                               .",
"...                                             ..",
"...                                             ..",
"....                                            ..",
"....                                            ..",
".....                                          ...",
".....                                         ....",
"......                                       .....",
"......                                       .....",
".......                                     ......",
"........                                   .......",
"..........                                ........",
"...........                              .........",
"...........                            ...........",
".............                         ............",
"...............                     ..............",
"..................               .................",
"......................        ...................."
};
