/* XPM */
static char *freebsdWhite64[] = {
/* columns rows colors chars-per-pixel */
"64 63 2 1 ",
"  c None",
". c #CCCCCC",
/* pixels */
"  ....                                                          ",
" ........                                                ...... ",
"...........               ..............              ..........",
".............         .....................         ............",
"...............     ..........................    ..............",
"...............   ............................  ................",
" ............   .............................  ................ ",
" ...........   ..........................    .................. ",
" ..........   ...........................   ................... ",
"  ........  .............................  ...................  ",
"  .......  ..............................  ...................  ",
"   .....  ...............................  ..................   ",
"   ....  ................................. ..................   ",
"    ...  .................................  ................    ",
"    ..  ................................... ................    ",
"       ....................................  ..............     ",
"       ..................................... ..............     ",
"      ....................................... ............      ",
"     ......................................... ..........  .    ",
"     ..........................................  ........ ...   ",
"     ...........................................  ......  ...   ",
"    .............................................   ...   ....  ",
"    ...............................................       ....  ",
"   ..................................................     ....  ",
"   ............................................................ ",
"   ............................................................ ",
"   ............................................................ ",
"   ............................................................ ",
"  ............................................................. ",
"  ............................................................. ",
"  ............................................................. ",
"  ..............................................................",
"  ..............................................................",
"  ............................................................. ",
"  ............................................................. ",
"  ............................................................. ",
"   ............................................................ ",
"   ............................................................ ",
"   ............................................................ ",
"   ............................................................ ",
"   ...........................................................  ",
"    ..........................................................  ",
"    ..........................................................  ",
"    .........................................................   ",
"     ........................................................   ",
"     ........................................................   ",
"      ......................................................    ",
"      .....................................................     ",
"       ....................................................     ",
"        ..................................................      ",
"        ..................................................      ",
"         ................................................       ",
"          ..............................................        ",
"           ............................................         ",
"            ..........................................          ",
"             ........................................           ",
"              ......................................            ",
"               ...................................              ",
"                 ................................               ",
"                   ............................                 ",
"                     ........................                   ",
"                        ..................                      ",
"                            ..........                          "
};
