/* XPM */
static char *pause50[] = {
/* columns rows colors chars-per-pixel */
"50 50 127 2 ",
"   c #0C760A650879",
".  c #0C820A77088F",
"X  c #0CC10AD20904",
"o  c #0D190B5209A9",
"O  c #0D780BDB0A5A",
"+  c #0DF60C920B46",
"@  c #0E4B0D0E0BE5",
"#  c #0EDA0DDC0CEF",
"$  c #0F7F0ECB0E23",
"%  c #0F980EEF0E51",
"&  c #0FE00F570ED8",
"*  c #102B0FC40F65",
"=  c #105710030FB6",
"-  c #10A510741046",
";  c #111B11201124",
":  c #115811771195",
">  c #117711A411CF",
",  c #11BE120C1255",
"<  c #1210128212ED",
"1  c #123612B91334",
"2  c #134B144B1539",
"3  c #140F156616A5",
"4  c #145515CB1729",
"5  c #1561174F191D",
"6  c #162118661A83",
"7  c #163418801AA6",
"8  c #165518B21AE5",
"9  c #16D119641BCB",
"0  c #171719C81C4D",
"q  c #17521A1F1CBB",
"w  c #179F1A8E1D4B",
"e  c #17B31AAC1D71",
"r  c #187F1BD21EED",
"t  c #18AF1C181F47",
"y  c #19B81D972135",
"u  c #1A061E0921C7",
"i  c #1AE71F50236C",
"p  c #1B171F9523C5",
"a  c #1D1322742779",
"s  c #1D4622BD27D7",
"d  c #1DC2237028BE",
"f  c #1E312410298D",
"g  c #1E8A24932A33",
"h  c #1EC924ED2AA8",
"j  c #1F2F25822B68",
"k  c #1F5025B22BA6",
"l  c #1F7725E92BEE",
"z  c #1FB426422C60",
"x  c #1FEF26972CCE",
"c  c #200B26C02D03",
"v  c #21E02967306D",
"b  c #22572A12314A",
"n  c #23AF2C0533CC",
"m  c #244B2CE634EF",
"M  c #258C2EB83747",
"N  c #25A92EE1377D",
"B  c #26462FC538A2",
"V  c #281532643C02",
"C  c #28E633913D87",
"Z  c #293A340B3E24",
"A  c #29A134A03EE4",
"S  c #29FA35213F8B",
"D  c #2A403586400D",
"F  c #2A9135FC40A4",
"G  c #2AE23672413C",
"H  c #2F1D3C91491F",
"J  c #2F473CCD496E",
"K  c #30183DFC4AF4",
"L  c #31BB405B4E01",
"P  c #325E41474F31",
"I  c #32D541F35010",
"U  c #33EF438B521D",
"Y  c #3474444C5316",
"T  c #34C144BC53A6",
"R  c #34CC44CB53BA",
"E  c #352845515466",
"W  c #359E45FC5542",
"Q  c #35EC466C55D3",
"!  c #35F7467C55E7",
"~  c #3675473356D3",
"^  c #36D447BD5785",
"/  c #36E547D557A4",
"(  c #38DD4AAF5B50",
")  c #39154B005BB8",
"_  c #39A44BCE5CC3",
"`  c #3DCA51D06480",
"'  c #3DCB51D26483",
"]  c #3EA953136621",
"[  c #3FF054ED6883",
"{  c #405E558C694F",
"}  c #40DB56426A3A",
"|  c #4171571A6B51",
" . c #41D257A76C07",
".. c #41F657DC6C4B",
"X. c #428A58B06D5C",
"o. c #433159A36E96",
"O. c #478F5FF676BC",
"+. c #47DB60637748",
"@. c #4A2D63BF7B9D",
"#. c #4A8664407C43",
"$. c #4B1E651B7D5E",
"%. c #4B8165AC7E18",
"&. c #4BD366227EB0",
"*. c #4C1F66917F3E",
"=. c #4C7267087FD9",
"-. c #4D69686E81A6",
";. c #4E4069A68338",
":. c #51406DFD88D0",
">. c #51CC6EC989D6",
",. c #51DF6EE489FA",
"<. c #526A6FAC8AFB",
"1. c #52BE70278B99",
"2. c #537071288CE4",
"3. c #54E1733D8F94",
"4. c #558E743990D8",
"5. c #55B3746E911D",
"6. c #5624751291EF",
"7. c #5638752F9216",
"8. c #5725768793D1",
"9. c #581777E59594",
"0. c #582577F995AE",
"q. c #58C978E796DF",
"w. c #590079359745",
"e. c #59B97A42989F",
"r. c #5A837B669A17",
"t. c #5AA17B919A4F",
"y. c #5B737CC29BD7",
/* pixels */
": : : & & $ $ O O o o       o o O O $ $ & : : : : : : : & & $ $ O O O o     o o o O O $ $ * : : : : ",
": : : * : & & $ $ $ $ $ $ O $ & $ $ $ & * : : * : : : : : * & $ % $ $ $ $ O $ $ O $ $ * * : * : : : ",
": : : : : : : : : 1 2 : : : 1 : : : : : : : : : : : * * : : : : : 1 1 : : 1 1 : : : : : : : : : * : ",
"* : : : 1 2 4 5 9 9 9 9 w w w 9 7 5 5 2 : : : : & : : : : 1 2 4 7 7 9 r r 9 9 r 9 7 7 4 2 1 : : : * ",
"& : : : 4 7 r y s f c c c c c f s a y 7 4 : : * & * * : 1 4 7 r a a f f f v c f f f y r 7 4 1 : : % ",
"$ : : 2 7 y f b N V S F F F S V n v f y 7 4 : & $ $ * : 2 7 y f b N B S F F F S V N v f y 7 2 : % $ ",
"$ $ : 5 r s n S J I ! / / ! ! L K F n f r 4 : $ $ $ $ : 4 r f n F J I ! / / ! ! I J S n f r 4 : % $ ",
"O $ : 7 y b S L ) ' [ X.X.X.[ ` ) L F b a 4 : $ O o $ : 5 a b F L _ ' [ X.X.X.[ ' ) L S v y 7 : % O ",
"O $ : 7 a n K )  .O.%.;.;.;.%.O.X._ K N s 7 : O o O $ : 7 s B K _ X.O.%.;.;.;.%.O. .) J n f 7 1 $ O ",
"o $ : 9 f V I ' O.;.,.3.6.3.,.;.+.' U S f 9 : $ o o $ : 9 f S Y ] +.;.1.3.3.3.,.;.O.' I S f 9 1 $ o ",
"o $ 1 w l S ! [ %.,.6.q.q.q.6.,.%.[ ! F c 9 : $ o   O : 9 c S ! [ %.,.6.q.q.q.6.,.%.[ ! S f r : O o ",
"o $ : w l S ! X.%.2.9.r.y.r.9.2.-.X./ F c w : O     O : 9 c F ! X.=.2.9.r.y.y.9.2.%.[ ! S c 9 1 $ o ",
"o O : w c F ! [ %.2.9.r.y.r.q.2.=.X.! F c 9 : $   o $ : w c F / X.=.2.q.r.y.y.q.2.=.[ ! S l 9 1 $   ",
"o $ 1 w l S ! [ %.1.6.r.r.r.6.,.%.X./ F c w : $   o O : 9 c F / X.=.1.6.q.y.q.6.1.%.[ ! S l r : O o ",
"o $ : w l S Y [ %.,.6.q.q.q.6.,.%.[ ! F c 9 : $ o   $ : 9 c F ! [ %.,.6.q.r.q.6.,.%.[ ! S f 9 1 $ o ",
"o O : 9 f S Y [ @.:.3.9.q.q.6.,.%.[ ! F f 9 : O     $ : 9 f S ! [ @.:.6.9.q.9.3.,.@.[ Y S c 9 1 $   ",
"o $ 2 9 f S Y [ @.:.6.9.q.9.3.:.%.[ ! F l 9 : $ o   O : 9 l S ! [ %.,.6.9.q.9.3.,.@.] Y S f 9 : $ o ",
"o $ : w f S Y [ @.,.3.9.q.9.6.:.@.[ ! F c 9 : $     $ : 9 c S ! [ %.,.3.9.q.9.6.:.@.[ Y S f 9 2 O o ",
"o $ 1 9 c S Y ] @.:.3.9.q.q.6.:.%.[ ! S l 9 : O o   O : 9 l S ! [ %.:.6.9.q.q.3.,.@.[ Y S f 9 2 $ o ",
"o O : 9 f S ! [ @.:.6.9.q.9.3.:.@.[ ! S c 9 : $     $ : 9 f S ! [ @.:.3.9.q.9.6.,.@.[ Y S l 9 : O o ",
"o O : 9 l S Y [ @.:.3.q.q.q.6.:.%.[ ! S f 9 : $   o $ : 9 c S ! [ %.,.6.9.q.9.6.:.@.[ Y S f 9 2 $ o ",
"o $ : w f S Y ] @.:.3.9.q.9.3.,.%.[ ! S c 9 : O   o O : 9 c S ! [ %.:.3.9.q.9.3.:.@.[ Y S l 9 1 $ o ",
"o $ 2 9 f S Y [ @.:.6.9.q.9.3.:.@.[ ! S l 9 : $ o   $ : 9 l S ! [ %.,.3.9.q.9.6.:.@.] Y S f 9 : O o ",
"o $ 2 9 f S Y ] @.:.6.9.q.9.6.:.%.[ ! F l 9 : $     $ : 9 f S ! [ @.:.6.q.q.9.6.:.@.[ Y S f 9 2 $   ",
"  O 2 9 l S Y ] @.:.3.9.q.9.6.:.%.[ ! S c 9 : O o   O : 9 l S ! [ %.,.6.9.q.9.3.,.@.[ Y S f 9 1 $ o ",
"o $ : w f S ! [ @.:.6.9.q.9.3.:.@.[ ! S l 9 : $     $ : 9 c S ! [ %.:.3.q.q.q.3.,.@.[ Y S c 9 1 O   ",
"o $ : 9 f S Y ] @.:.6.9.q.9.6.:.%.[ ! S l 9 : $ o   O : 9 l S ! [ %.:.6.9.q.9.6.:.@.[ Y S f w 1 $ o ",
"o O : w f S Y [ @.,.3.9.q.q.3.,.%.[ ! S c 9 : O     $ : 9 f S ! [ @.:.3.9.q.q.3.:.@.[ Y S f 9 1 $ o ",
"o $ 2 9 c S Y ] @.:.3.9.q.9.3.:.%.[ ! F l 9 : $   o $ : 9 l F ! [ %.,.6.9.q.9.6.:.@.] Y S f 9 : O   ",
"o $ : w f S ! [ @.:.6.9.q.9.6.:.@.[ ! S c 9 : $   o O : 9 c S ! [ %.,.3.q.q.9.3.:.@.[ Y S f 9 2 $ o ",
"o O : 9 f S Y ] @.:.3.q.q.q.6.:.%.[ ! S c 9 : $ o   $ : 9 l S ! [ %.,.3.9.q.9.6.,.@.[ Y S f 9 1 $ o ",
"o $ 2 w f S Y [ @.:.6.9.q.9.3.:.%.[ ! S f 9 : O     $ : 9 f S ! [ @.:.6.9.q.9.3.,.@.[ Y S c 9 : O o ",
"o $ : 9 f S Y [ @.,.6.9.q.9.3.,.%.[ ! S f 9 : $ o o O : 9 c F ! [ %.:.3.9.q.q.6.,.@.[ ! S l 9 2 O O ",
"o O 2 9 f S Y [ @.,.3.9.q.q.3.:.%.[ ! S c w : $     $ : 9 l S ! [ %.:.6.9.q.9.3.:.@.] Y V f 9 : $ o ",
"  $ : 9 f S Y [ @.,.3.q.q.9.6.:.%.[ ! S l 9 : O   o O : 9 l S ! [ @.:.3.9.q.q.6.:.@.] Y S l w 1 O o ",
"o $ 2 w f S ! [ @.,.6.q.q.q.6.,.%.[ ! F l 9 1 $   o $ : 9 l F ! [ %.,.6.q.r.q.6.,.@.[ ! S l 9 1 $ o ",
"  O : 9 c S ! [ %.1.6.r.y.r.6.1.%. .! F v 9 : O     $ : 9 l F ! X.=.1.6.r.y.q.6.1.%.[ ! S l 9 2 $ o ",
"o $ 2 9 c S !  .=.2.9.r.y.r.9.2.=.X./ F f w : $     $ : 9 c F / X.;.2.9.r.y.r.9.2.;.[ ! S f w : O o ",
"o $ : r l F !  .%.2.q.r.y.r.9.2.;.X./ F v 7 : O     O : 9 l F /  .=.2.9.r.y.y.9.2.%. .! S v w 1 O o ",
"o O : 9 f S Y [ %.,.6.q.q.q.6.,.%.[ ! F l 9 : $   o O : 9 v F ! [ %.,.6.q.q.q.6.,.%.] Y S f r : $ o ",
"O $ : 7 f S L ` O.;.,.3.6.3.,.;.+.] Y S f 7 : O   o $ : 9 f S Y ' O.;.1.3.6.3.1.;.O.` L V f 9 1 $ o ",
"O $ 1 7 a n J ) [ O.%.;.;.;.%.O.X._ K B a 7 : $ o o $ : 7 f n K _ X.O.%.;.;.;.%.+.[ ) J N a 9 : $ O ",
"O $ : 7 a v S L _ ' [ X.X.X.[ ' _ L F b a 7 : $ O O $ : 7 a n F L _ ' [  .X.X.[ ' ) L S v a 7 : $ O ",
"$ * : 4 w a n V J I ! ! / ! ! L J F n f 9 4 : $ $ $ $ : 4 9 f n F J L ! ! / ! ! I J S n a r 4 : $ $ ",
"$ * : 2 7 y s v n S S F G F S B n b f y 7 2 : * $ $ * : 2 7 y f b n V S F F F F S n v f y 7 2 : % $ ",
"* * : : 4 7 r a f f f c v c c f a a r 7 4 : : * $ $ * : : 4 7 r a a f l c c c f f a y r 7 2 : : : % ",
": : : : : 4 4 7 7 9 9 r w r w 9 9 7 4 2 2 : : * : * : : : 2 2 4 7 9 9 9 w r r 9 9 7 7 4 2 2 : : * : ",
": : : : : : : : 2 : : 2 : : 2 : : : : : : : : * : : * : : : : : : : : 2 1 1 : 2 : 1 : : : : : : : * ",
": : * : * * $ $ $ $ O $ O $ O $ $ $ $ * : * : : : : : : * * $ $ * $ $ O $ O $ $ O $ $ * * : : : : : ",
": : : * * $ $ O O O O o o     o O O $ $ $ : : : : : * : : * $ $ O O O O o     o o O O $ $ % * : : : "
};
