/* XPM */
static char *pkgsrc50[] = {
/* columns rows colors chars-per-pixel */
"50 50 115 2 ",
"   c #000000",
".  c #090605",
"X  c #0B0807",
"o  c #0D0A08",
"O  c #120B07",
"+  c #120D09",
"@  c #180F09",
"#  c #16100D",
"$  c #1A120D",
"%  c #1B1511",
"&  c #231106",
"*  c #22160E",
"=  c #27190F",
"-  c #2D1B0F",
";  c #331E0F",
":  c #3A1E0B",
">  c #211711",
",  c #241912",
"<  c #2B1C11",
"1  c #211C18",
"2  c #331F11",
"3  c #2F2017",
"4  c #342115",
"5  c #3C2415",
"6  c #3F2819",
"7  c #432008",
"8  c #522609",
"9  c #402514",
"0  c #422817",
"q  c #4B2A14",
"w  c #462D1B",
"e  c #4A2D1A",
"r  c #522D15",
"t  c #512F18",
"y  c #5B3216",
"u  c #543119",
"i  c #5E361B",
"p  c #6C2B00",
"a  c #6C310A",
"s  c #73340A",
"d  c #79370B",
"f  c #623313",
"g  c #6B3613",
"h  c #6B3817",
"j  c #643719",
"k  c #63381B",
"l  c #6C3A18",
"z  c #743A13",
"x  c #7B3E15",
"c  c #743E1B",
"v  c #7D431C",
"b  c #744322",
"n  c #823B0B",
"m  c #993D00",
"M  c #994107",
"N  c #99440A",
"B  c #844216",
"V  c #8C4516",
"C  c #85461C",
"Z  c #8C4A1D",
"A  c #924614",
"S  c #914817",
"D  c #9A4B16",
"F  c #974D1B",
"G  c #9B4E1B",
"H  c #A3480B",
"J  c #B24F0D",
"K  c #A54F15",
"L  c #AB5216",
"P  c #A5511A",
"I  c #B45515",
"U  c #B85716",
"Y  c #B0571B",
"T  c #B3591C",
"R  c #BB5C1C",
"E  c #814821",
"W  c #904D20",
"Q  c #975122",
"!  c #995121",
"~  c #A15421",
"^  c #C64F00",
"/  c #C65104",
"(  c #C6560C",
")  c #CA570A",
"_  c #D25C0D",
"`  c #C45B15",
"'  c #CC5F17",
"]  c #C35E1A",
"[  c #D45F11",
"{  c #DA600F",
"}  c #C6601C",
"|  c #CB621B",
" . c #D46115",
".. c #DB6415",
"X. c #D66418",
"o. c #D9671B",
"O. c #E2630D",
"+. c #ED650A",
"@. c #EF680F",
"#. c #F76606",
"$. c #FF6600",
"%. c #FE6905",
"&. c #F46708",
"*. c #F3690C",
"=. c #FB6B0C",
"-. c #E46713",
";. c #E26817",
":. c #EA6B16",
">. c #E96D1A",
",. c #F26C13",
"<. c #F26F18",
"1. c #FF7113",
"2. c #F2711B",
"3. c #C46221",
"4. c #F27521",
/* pixels */
"                                                                                                    ",
"                                                                                                    ",
"                                            # w .                                                   ",
"                                        = P =.$.:.K i X                                             ",
"                                    t ] #.$.$.$.$.$.$.=.U h $                                       ",
"                              . l ..$.$.$.$.$.$.$.$.$.$.$.$.%.| x <                                 ",
"                          > V ,.$.$.$.$.$.$.$.$.$.$.$.$.$.$.$.$.$.%...V 0 .                         ",
"                      5 L =.$.$.$.$.$.$.$.$.$.$.$.$.$.$.$.$.$.$.$.$.$.$.%.O.D t X                   ",
"                  i ` %.$.$.$.$.$.$.$.$.$.$.$.$.$.$.$.$.$.$.$.$.$.$.$.$.$.$.$.$.*.U y %             ",
"            # x >.$.$.$.$.$.$.$.$.$.$.$.$.$.$.$.$.$.$.$.$.$.$.$.$.$.$.$.$.$.$.$.$.$.$.1.b           ",
"        * D *.$.$.$.$.$.$.$.$.$.$.$.$.$.$.$.$.$.$.$.$.$.$.$.$.$.$.$.$.$.$.$.$.$.$.$.X.e             ",
"        $ c  .%.$.$.$.$.$.$.$.$.$.$.$.$.$.$.$.$.$.$.$.$.$.$.$.$.$.$.$.$.$.$.$.$.:.f .               ",
"              5 D ,.$.$.$.$.$.$.$.$.$.$.$.$.$.$.$.$.$.$.$.$.$.$.$.$.$.$.$.$.=.Z X                   ",
"                  X k ` #.$.$.$.$.$.$.$.$.$.$.$.$.$.$.$.$.$.$.$.$.$.$.$.%.K ,             < ] 1     ",
"    o                   < B -.$.$.$.$.$.$.$.$.$.$.$.$.$.$.$.$.$.$.$.%.| 5             X W =.=.      ",
"    g ' j X                 X q L =.$.$.$.$.$.$.$.$.$.$.$.$.$.$.$.;.y               r >.$.$.2.      ",
"    y $.$.,.S <                   $ z X.$.$.$.$.$.$.$.$.$.$.$.+.b .             = U $.$.$.$.[       ",
"    : $.$.$.$.%.] i .                   5 G :.$.$.$.$.$.$.=.F $             X C =.$.$.$.$.$.`       ",
"    3 %.$.$.$.$.$.$.-.B >                   X j ` %.$.$.3.<               t ;.$.$.$.$.$.$.$.K       ",
"    + $.$.$.$.$.$.$.$.$.=.U q                     , B q               < R $.$.$.$.$.$.$.$.$.A       ",
"      1.$.$.$.$.$.$.$.$.$.$.$.;.x %                               . x *.$.$.$.$.$.$.$.$.$.$.x       ",
"      -.$.$.$.$.$.$.$.$.$.$.$.$.$.=.L 5                         q ..$.$.$.$.$.$.$.$.$.$.$.$.f       ",
"      X.$.$.$.$.$.$.$.$.$.$.$.$.$.$.$.$...c #               * Y $.$.$.$.$.$.$.$.$.$.$.$.$.$.q       ",
"      J $.$.$.$.$.$.$.$.$.$.$.$.$.$.$.$.$.$.*.D 4         e *.$.$.$.$.$.$.$.$.$.$.$.$.$.$.$.2       ",
"      P $.$.$.$.$.$.$.$.$.$.$.$.$.$.$.$.$.$.$.$.K         h $.$.$.$.$.$.$.$.$.$.$.$.$.$.$.%.>       ",
"      n $.$.$.$.$.$.$.$.$.$.$.$.$.$.$.$.$.$.$.$.K         a $.$.$.$.$.$.$.$.$.$.$.$.$.$.$.#.X       ",
"      v $.$.$.$.$.$.$.$.$.$.$.$.$.$.$.$.$.$.$.$.K         a $.$.$.$.$.$.$.$.$.$.$.$.$.$.$.,.        ",
"      8 $.$.$.$.$.$.$.$.$.$.$.$.$.$.$.$.$.$.$.$.K         p $.$.$.$.$.$.$.$.$.$.$.$.$.$.$.[         ",
"      e $.$.$.$.$.$.$.$.$.$.$.$.$.$.$.$.$.$.$.$.K         d $.$.$.$.$.$.$.$.$.$.$.$.$.$.$.`         ",
"      & $.$.$.$.$.$.$.$.$.$.$.$.$.$.$.$.$.$.$.$.K         ! $.$.$.$.$.$.$.$.$.$.$.$.$.$.$.H         ",
"      1 %.$.$.$.$.$.$.$.$.$.$.$.$.$.$.$.$.$.$.$.K         F $.$.$.$.$.$.$.$.$.$.$.$.$.$.$.D         ",
"        =.$.$.$.$.$.$.$.$.$.$.$.$.$.$.$.$.$.$.$.K         D $.$.$.$.$.$.$.$.$.$.$.$.$.$.$.s         ",
"        2.$.$.$.$.$.$.$.$.$.$.$.$.$.$.$.$.$.$.$.K         D $.$.$.$.$.$.$.$.$.$.$.$.$.$.$.l         ",
"        ) $.$.$.$.$.$.$.$.$.$.$.$.$.$.$.$.$.$.$.K         N $.$.$.$.$.$.$.$.$.$.$.$.$.$.$.7         ",
"        ] $.$.$.$.$.$.$.$.$.$.$.$.$.$.$.$.$.$.$.K         M $.$.$.$.$.$.$.$.$.$.$.$.$.$.$.6         ",
"        N $.$.$.$.$.$.$.$.$.$.$.$.$.$.$.$.$.$.$.K         m $.$.$.$.$.$.$.$.$.$.$.$.$.$.$.$         ",
"        F $.$.$.$.$.$.$.$.$.$.$.$.$.$.$.$.$.$.$.K         I $.$.$.$.$.$.$.$.$.$.$.$.$.$.| .         ",
"        a $.$.$.$.$.$.$.$.$.$.$.$.$.$.$.$.$.$.$.K         3.$.$.$.$.$.$.$.$.$.$.$.$.%.~ X           ",
"        5 O.$.$.$.$.$.$.$.$.$.$.$.$.$.$.$.$.$.$.K         ] $.$.$.$.$.$.$.$.$.$.$.&.j               ",
"          + C *.$.$.$.$.$.$.$.$.$.$.$.$.$.$.$.$.K         ` $.$.$.$.$.$.$.$.$.$.;.5                 ",
"              + V =.$.$.$.$.$.$.$.$.$.$.$.$.$.$.K         ` $.$.$.$.$.$.$.$.$.R O                   ",
"                  > D #.$.$.$.$.$.$.$.$.$.$.$.$.K         ( $.$.$.$.$.$.$.%.C .                     ",
"                      < T %.$.$.$.$.$.$.$.$.$.$.K         / $.$.$.$.$.$.@.u                         ",
"                          2 U %.$.$.$.$.$.$.$.$.K         ^ $.$.$.$.$.X.*                           ",
"                              w ' %.$.$.$.$.$.$.K         >.$.$.$.%.P X                             ",
"                                  q ..%.$.$.$.$.K         4.$.$.%.c                                 ",
"                                    . j { $.$.$.K         2.$.:.5                                   ",
"                                          b -.$.K         ,.| @                                     ",
"                                            X z Q         E X                                       ",
"                                                                                                    "
};
