/* XPM */
static char *pkgsrc64[] = {
/* columns rows colors chars-per-pixel */
"64 64 139 2 ",
"   c #000000",
".  c #0A0604",
"X  c #0C0907",
"o  c #0C0A09",
"O  c #120E0B",
"+  c #15100C",
"@  c #1A130E",
"#  c #1C1611",
"$  c #240E00",
"%  c #241104",
"&  c #24150B",
"*  c #2B170A",
"=  c #2B1A0E",
"-  c #331C0D",
";  c #211710",
":  c #241A13",
">  c #291D14",
",  c #331F12",
"<  c #2E2017",
"1  c #2C211A",
"2  c #332217",
"3  c #392416",
"4  c #35251A",
"5  c #392618",
"6  c #3D291C",
"7  c #3F2D20",
"8  c #44220C",
"9  c #5D2500",
"0  c #5D2804",
"q  c #5D2D0D",
"w  c #442713",
"e  c #422816",
"r  c #462E1D",
"t  c #4A2E1B",
"y  c #4E311E",
"u  c #5D3113",
"i  c #53321C",
"p  c #5B351B",
"a  c #692F08",
"s  c #7F3708",
"d  c #613517",
"f  c #653719",
"g  c #63391D",
"h  c #6D3C1C",
"j  c #723711",
"k  c #753912",
"l  c #723E1A",
"z  c #432F21",
"x  c #433125",
"c  c #493223",
"v  c #543723",
"b  c #573925",
"n  c #5B3922",
"m  c #5D3F2A",
"M  c #633E26",
"N  c #693F24",
"B  c #7E4017",
"V  c #75411F",
"C  c #7D421C",
"Z  c #6E4122",
"A  c #754322",
"S  c #784523",
"D  c #7D4A27",
"F  c #973D02",
"G  c #8B400E",
"H  c #97440D",
"J  c #9E480F",
"K  c #8F4616",
"L  c #82441B",
"P  c #87491F",
"I  c #8C481B",
"U  c #904716",
"Y  c #974915",
"T  c #964D1D",
"R  c #B44F0B",
"E  c #B7510D",
"W  c #A55017",
"Q  c #AC5115",
"!  c #A1511C",
"~  c #AA541A",
"^  c #B45313",
"/  c #BD5A17",
"(  c #BC5C1C",
")  c #814823",
"_  c #8C4D22",
"`  c #844E2B",
"'  c #955124",
"]  c #9C5322",
"[  c #96552A",
"{  c #9E5828",
"}  c #A55621",
"|  c #AC5A23",
" . c #A65B29",
".. c #A85E2B",
"X. c #B45D22",
"o. c #BB5F21",
"O. c #B76127",
"+. c #BE6022",
"@. c #BB6429",
"#. c #D05A0B",
"$. c #C75D16",
"%. c #C05E1C",
"&. c #D05F13",
"*. c #CE6017",
"=. c #C4601D",
"-. c #CD621A",
";. c #D66113",
":. c #DE6412",
">. c #D3651C",
",. c #D6691F",
"<. c #E6630C",
"1. c #EF680E",
"2. c #F36506",
"3. c #FF6600",
"4. c #FF6905",
"5. c #F46608",
"6. c #F66B0E",
"7. c #FD6B0A",
"8. c #E36612",
"9. c #E76813",
"0. c #EC6A14",
"q. c #E46B1B",
"w. c #EC6E19",
"e. c #F26D14",
"r. c #FA6E11",
"t. c #F06E18",
"y. c #EE721F",
"u. c #F67017",
"i. c #FC7114",
"p. c #F2721D",
"a. c #FC751B",
"s. c #C46323",
"d. c #C96421",
"f. c #CE6925",
"g. c #D06721",
"h. c #D96B22",
"j. c #D06D2A",
"k. c #E26E21",
"l. c #E97528",
/* pixels */
"                                                                                                                                ",
"                                                                                                                                ",
"                                                                                                                                ",
"                                                        : L N @                                                                 ",
"                                                    5 | 6.3.3.6.( l >                                                           ",
"                                              o p =.4.3.3.3.3.3.3.4.7.*.P 6                                                     ",
"                                          # l q.3.3.3.3.3.3.3.3.3.3.3.3.3.4.:.U v                                               ",
"                                      < K t.3.3.3.3.3.3.3.3.3.3.3.3.3.3.3.3.3.4.3.0.W M O                                       ",
"                                  r o.7.3.3.3.3.3.3.3.3.3.3.3.3.3.3.3.3.3.3.3.3.3.3.3.3.6.( A #                                 ",
"                            o g >.3.3.3.3.3.3.3.3.3.3.3.3.3.3.3.3.3.3.3.3.3.3.3.3.3.3.3.3.3.3.7.-.C 2                           ",
"                        # L p.3.3.3.3.3.3.3.3.3.3.3.3.3.3.3.3.3.3.3.3.3.3.3.3.3.3.3.3.3.3.3.3.3.3.3.7.;.T z                     ",
"                    6 ! r.3.3.3.3.3.3.3.3.3.3.3.3.3.3.3.3.3.3.3.3.3.3.3.3.3.3.3.3.3.3.3.3.3.3.3.3.3.3.3.3.4.9.| b .             ",
"              . n / 7.3.3.3.3.3.3.3.3.3.3.3.3.3.3.3.3.3.3.3.3.3.3.3.3.3.3.3.3.3.3.3.3.3.3.3.3.3.3.3.3.3.3.3.3.7.~ :             ",
"          X A ;.4.3.3.3.3.3.3.3.3.3.3.3.3.3.3.3.3.3.3.3.3.3.3.3.3.3.3.3.3.3.3.3.3.3.3.3.3.3.3.3.3.3.3.3.3.3.-.r                 ",
"          O V h.4.3.3.3.3.3.3.3.3.3.3.3.3.3.3.3.3.3.3.3.3.3.3.3.3.3.3.3.3.3.3.3.3.3.3.3.3.3.3.3.3.3.3.3.8.M .                   ",
"                , ] p.3.3.3.3.3.3.3.3.3.3.3.3.3.3.3.3.3.3.3.3.3.3.3.3.3.3.3.3.3.3.3.3.3.3.3.3.3.3.3.i.C o                       ",
"                    o p %.7.3.3.3.3.3.3.3.3.3.3.3.3.3.3.3.3.3.3.3.3.3.3.3.3.3.3.3.3.3.3.3.3.3.3.7.| #                 # ;       ",
"                          1 L q.3.3.3.3.3.3.3.3.3.3.3.3.3.3.3.3.3.3.3.3.3.3.3.3.3.3.3.3.3.3.4.s.4                 . Z 0.y       ",
"      .                         v ~ r.3.3.3.3.3.3.3.3.3.3.3.3.3.3.3.3.3.3.3.3.3.3.3.3.3.3.k.i                   z d.3.4.=       ",
"      ..L :                         @ A -.4.3.3.3.3.3.3.3.3.3.3.3.3.3.3.3.3.3.3.3.3.3.t.h o                 O  .7.3.3.7.1       ",
"      J 3.7.o.b                         . 5 ] 0.3.3.3.3.3.3.3.3.3.3.3.3.3.3.3.3.3.7.T #                   g 9.3.3.3.3.2.        ",
"      ] 3.3.3.3.q.l #                         o M %.5.3.3.3.3.3.3.3.3.3.3.3.3.4.Q 1                   2 d.4.3.3.3.3.3.p.        ",
"      a 3.3.3.3.3.3.6.X.c                           > _ q.3.3.3.3.3.3.3.3.3.>.r                   o ' 7.3.3.3.3.3.3.3.>.        ",
"      f 3.3.3.3.3.3.3.3.3.,.l O                           y X.r.3.3.3.3.y.M .                 . g w.3.3.3.3.3.3.3.3.4.^         ",
"      b 3.3.3.3.3.3.3.3.3.3.3.e.} 7                           O A h.a.L O                   4 s.4.3.3.3.3.3.3.3.3.3.3.O.        ",
"      * 4.3.3.3.3.3.3.3.3.3.3.3.3.3.-.g o                                               O ' 7.3.3.3.3.3.3.3.3.3.3.3.3.s         ",
"      1 7.3.3.3.3.3.3.3.3.3.3.3.3.3.3.3.0.' 4                                         p :.3.3.3.3.3.3.3.3.3.3.3.3.3.3.C         ",
"      o 5.3.3.3.3.3.3.3.3.3.3.3.3.3.3.3.3.3.4.%.p .                               1 ( 4.3.3.3.3.3.3.3.3.3.3.3.3.3.3.3.d         ",
"        t.3.3.3.3.3.3.3.3.3.3.3.3.3.3.3.3.3.3.3.3.9.P 1                       o _ 5.3.3.3.3.3.3.3.3.3.3.3.3.3.3.3.3.3.w         ",
"        k.3.3.3.3.3.3.3.3.3.3.3.3.3.3.3.3.3.3.3.3.3.3.7.s.i                 v w.3.3.3.3.3.3.3.3.3.3.3.3.3.3.3.3.3.3.3.x         ",
"        E 3.3.3.3.3.3.3.3.3.3.3.3.3.3.3.3.3.3.3.3.3.3.3.3.3.,.p           : 7.3.3.3.3.3.3.3.3.3.3.3.3.3.3.3.3.3.3.3.4..         ",
"        X.3.3.3.3.3.3.3.3.3.3.3.3.3.3.3.3.3.3.3.3.3.3.3.3.3.3.I           : 7.3.3.3.3.3.3.3.3.3.3.3.3.3.3.3.3.3.3.3.i.X         ",
"        G 3.3.3.3.3.3.3.3.3.3.3.3.3.3.3.3.3.3.3.3.3.3.3.3.3.3.I           & 4.3.3.3.3.3.3.3.3.3.3.3.3.3.3.3.3.3.3.3.9.          ",
"        B 3.3.3.3.3.3.3.3.3.3.3.3.3.3.3.3.3.3.3.3.3.3.3.3.3.3.I           & 4.3.3.3.3.3.3.3.3.3.3.3.3.3.3.3.3.3.3.3.&.          ",
"        h 3.3.3.3.3.3.3.3.3.3.3.3.3.3.3.3.3.3.3.3.3.3.3.3.3.3.I           % 3.3.3.3.3.3.3.3.3.3.3.3.3.3.3.3.3.3.3.3.f.          ",
"        8 3.3.3.3.3.3.3.3.3.3.3.3.3.3.3.3.3.3.3.3.3.3.3.3.3.3.I           $ 3.3.3.3.3.3.3.3.3.3.3.3.3.3.3.3.3.3.3.3.H           ",
"        z 3.3.3.3.3.3.3.3.3.3.3.3.3.3.3.3.3.3.3.3.3.3.3.3.3.3.I           - 3.3.3.3.3.3.3.3.3.3.3.3.3.3.3.3.3.3.3.3.T           ",
"        O 4.3.3.3.3.3.3.3.3.3.3.3.3.3.3.3.3.3.3.3.3.3.3.3.3.3.I           m 3.3.3.3.3.3.3.3.3.3.3.3.3.3.3.3.3.3.3.3.k           ",
"        . r.3.3.3.3.3.3.3.3.3.3.3.3.3.3.3.3.3.3.3.3.3.3.3.3.3.I           m 3.3.3.3.3.3.3.3.3.3.3.3.3.3.3.3.3.3.3.3.u           ",
"        o p.3.3.3.3.3.3.3.3.3.3.3.3.3.3.3.3.3.3.3.3.3.3.3.3.3.I           n 3.3.3.3.3.3.3.3.3.3.3.3.3.3.3.3.3.3.3.3.v           ",
"          #.3.3.3.3.3.3.3.3.3.3.3.3.3.3.3.3.3.3.3.3.3.3.3.3.3.I           p 3.3.3.3.3.3.3.3.3.3.3.3.3.3.3.3.3.3.3.4.%           ",
"          g.3.3.3.3.3.3.3.3.3.3.3.3.3.3.3.3.3.3.3.3.3.3.3.3.3.I           p 3.3.3.3.3.3.3.3.3.3.3.3.3.3.3.3.3.3.3.7.:           ",
"          Q 3.3.3.3.3.3.3.3.3.3.3.3.3.3.3.3.3.3.3.3.3.3.3.3.3.I           u 3.3.3.3.3.3.3.3.3.3.3.3.3.3.3.3.3.3.3.2.o           ",
"          Y 3.3.3.3.3.3.3.3.3.3.3.3.3.3.3.3.3.3.3.3.3.3.3.3.3.I           q 3.3.3.3.3.3.3.3.3.3.3.3.3.3.3.3.3.3.3.0.            ",
"          _ 3.3.3.3.3.3.3.3.3.3.3.3.3.3.3.3.3.3.3.3.3.3.3.3.3.I           0 3.3.3.3.3.3.3.3.3.3.3.3.3.3.3.3.3.3.3.l.            ",
"          q 3.3.3.3.3.3.3.3.3.3.3.3.3.3.3.3.3.3.3.3.3.3.3.3.3.I           9 3.3.3.3.3.3.3.3.3.3.3.3.3.3.3.3.3.3.3.R             ",
"          p 3.3.3.3.3.3.3.3.3.3.3.3.3.3.3.3.3.3.3.3.3.3.3.3.3.I           j 3.3.3.3.3.3.3.3.3.3.3.3.3.3.3.3.3.3.3.'             ",
"          , 3.3.3.3.3.3.3.3.3.3.3.3.3.3.3.3.3.3.3.3.3.3.3.3.3.I           [ 3.3.3.3.3.3.3.3.3.3.3.3.3.3.3.3.3.7.D .             ",
"          & 7.4.3.3.3.3.3.3.3.3.3.3.3.3.3.3.3.3.3.3.3.3.3.3.3.I           [ 3.3.3.3.3.3.3.3.3.3.3.3.3.3.3.3.<.y                 ",
"          o U 5.3.3.3.3.3.3.3.3.3.3.3.3.3.3.3.3.3.3.3.3.3.3.3.I           T 3.3.3.3.3.3.3.3.3.3.3.3.3.3.4.-.>                   ",
"              1 | 7.3.3.3.3.3.3.3.3.3.3.3.3.3.3.3.3.3.3.3.3.3.I           T 3.3.3.3.3.3.3.3.3.3.3.3.3.4. .o                     ",
"                  2 W 4.3.3.3.3.3.3.3.3.3.3.3.3.3.3.3.3.3.3.3.I           Y 3.3.3.3.3.3.3.3.3.3.3.3.i.h                         ",
"                      c s.4.3.3.3.3.3.3.3.3.3.3.3.3.3.3.3.3.3.I           H 3.3.3.3.3.3.3.3.3.3.3.:.5                           ",
"                          t $.3.3.3.3.3.3.3.3.3.3.3.3.3.3.3.3.I           Y 3.3.3.3.3.3.3.3.3.3.+.@                             ",
"                              Z k.3.3.3.3.3.3.3.3.3.3.3.3.3.3.I           F 3.3.3.3.3.3.3.3.7.[                                 ",
"                                . g :.3.3.3.3.3.3.3.3.3.3.3.3.I           F 3.3.3.3.3.3.3.e.i                                   ",
"                                    o ` t.3.3.3.3.3.3.3.3.3.3.I           ^ 3.3.3.3.3.3.>.>                                     ",
"                                        O L 0.3.3.3.3.3.3.3.3.I           j.3.3.3.3.3.| X                                       ",
"                                            # { r.3.3.3.3.3.3.I           j.3.3.3.7.`                                           ",
"                                                ; ! 7.3.3.3.3.I           -.3.3.w.e                                             ",
"                                                    & @.7.3.3.I           >.3.j.@                                               ",
"                                                        6 ( 3.I           -.[ .                                                 ",
"                                                            e p           6                                                     ",
"                                                                                                                                "
};
