/* XPM */
static char *pkgsrc32[] = {
/* columns rows colors chars-per-pixel */
"32 32 181 2 ",
"   c black",
".  c #010100",
"X  c #010101",
"o  c #020202",
"O  c #030202",
"+  c #030302",
"@  c #040302",
"#  c #050302",
"$  c #040303",
"%  c #050403",
"&  c #070504",
"*  c #070604",
"=  c #080504",
"-  c #0B0806",
";  c #0C0806",
":  c #0D0906",
">  c #0E0906",
",  c #0F0A07",
"<  c #0E0B09",
"1  c #120801",
"2  c #120A05",
"3  c #120B06",
"4  c #150D07",
"5  c #120C09",
"6  c #160F0B",
"7  c #190F08",
"8  c #19100A",
"9  c #1B110B",
"0  c #1C1109",
"q  c #2F1301",
"w  c #211309",
"e  c #20130A",
"r  c #21140B",
"t  c #20140D",
"y  c #25160C",
"u  c #24160D",
"i  c #24170E",
"p  c #2F1708",
"a  c #2B180B",
"s  c #29180C",
"d  c #28180D",
"f  c #2B180C",
"g  c #2D1A0D",
"h  c #2F1B0D",
"j  c #2D1A0E",
"k  c #2F1C0F",
"l  c #331A08",
"z  c #331C0C",
"x  c #311C0F",
"c  c #3B1E0B",
"v  c #381F0D",
"b  c #381F0F",
"n  c #2F1E12",
"m  c #3F2310",
"M  c #4B1F01",
"N  c #43220C",
"B  c #42230F",
"V  c #47250E",
"C  c #4B2308",
"Z  c #4B260D",
"A  c #48260F",
"S  c #4C270D",
"D  c #4F270C",
"F  c #51260A",
"G  c #52290D",
"H  c #572B0D",
"J  c #542A0E",
"K  c #542B0F",
"L  c #562C0F",
"P  c #592A0B",
"I  c #442510",
"U  c #4B2912",
"Y  c #532B10",
"T  c #532C12",
"R  c #542C11",
"E  c #572C10",
"W  c #5E3012",
"Q  c #602E0D",
"!  c #65310E",
"~  c #67320E",
"^  c #66320F",
"/  c #68300B",
"(  c #6F320A",
")  c #68320E",
"_  c #7D3A0E",
"`  c #7D3B0F",
"'  c #603010",
"]  c #683412",
"[  c #763A11",
"{  c #773A12",
"}  c #7B3B11",
"|  c #793C13",
" . c #853B09",
".. c #833E0F",
"X. c #853F0F",
"o. c #873F0F",
"O. c #833E10",
"+. c #8C410E",
"@. c #96430B",
"#. c #90430F",
"$. c #874214",
"%. c #894010",
"&. c #8C4210",
"*. c #934511",
"=. c #974711",
"-. c #9C4B14",
";. c #A1490E",
":. c #A64B0F",
">. c #AC4B0A",
",. c #AF4F0F",
"<. c #B3500E",
"1. c #B7510D",
"2. c #B5520F",
"3. c #A04A10",
"4. c #A14A10",
"5. c #A34B10",
"6. c #AC4E10",
"7. c #AD4F11",
"8. c #B65210",
"9. c #B15315",
"0. c #B95310",
"q. c #B85411",
"w. c #BE5510",
"e. c #BD5612",
"r. c #C25309",
"t. c #C6570D",
"y. c #C5570E",
"u. c #C5580F",
"i. c #C8590F",
"p. c #CA5A0F",
"a. c #CD590C",
"s. c #CC5A0D",
"d. c #D55D0E",
"f. c #D45E0F",
"g. c #DB5E0A",
"h. c #D95F0D",
"j. c #DB5F0C",
"k. c #C35912",
"l. c #C55911",
"z. c #C45912",
"x. c #DE600C",
"c. c #E96207",
"v. c #E0600A",
"b. c #E0600B",
"n. c #E3610B",
"m. c #E4620B",
"M. c #E1610D",
"N. c #E7640D",
"B. c #E9640B",
"V. c #EA640A",
"C. c #EB640A",
"Z. c #EC650A",
"A. c #E9650C",
"S. c #F16406",
"D. c #F26507",
"F. c #F66504",
"G. c #F76605",
"H. c #F56607",
"J. c #F66606",
"K. c #FF6600",
"L. c #FF6601",
"P. c #FF6701",
"I. c #FD6703",
"U. c #FE6702",
"Y. c #FF6702",
"T. c #F96604",
"R. c #FB6604",
"E. c #F96706",
"W. c #FC6704",
"Q. c #FE6803",
"!. c #FF6803",
"~. c #FB6805",
"^. c #FF6804",
"/. c #FF6905",
"(. c #FD6906",
"). c #FD6907",
"_. c #F06509",
"`. c #F36608",
"'. c #F46A0E",
"]. c #F86909",
"[. c #FB6908",
/* pixels */
"                                                                ",
"                            s t                                 ",
"                      + V 0.Q.I.s._ x .                         ",
"                  ; ~ d.L.K.K.K.K.K.P.g.#.B #                   ",
"              0 o.Z.K.K.K.K.K.K.K.K.K.K.K.K.C.5.G :             ",
"          b :.[.K.K.K.K.K.K.K.K.K.K.K.K.K.K.K.K.K.H.8.! 8       ",
"    O J u.Y.K.K.K.K.K.K.K.K.K.K.K.K.K.K.K.K.K.K.K.K.L.l.z       ",
"    % Y <.).K.K.K.K.K.K.K.K.K.K.K.K.K.K.K.K.K.K.K.x.K X         ",
"          7 } h.K.K.K.K.K.K.K.K.K.K.K.K.K.K.K._.{ *     X W 9   ",
"  f a         . m 4.`.K.K.K.K.K.K.K.K.K.K.~.=.4       h k.^.6   ",
"  D U.z.H &         , ^ i.U.K.K.K.K.K.Y.2.f       : &.T.K.]..   ",
"  l K.K.K.B.%.w           j +.A.K.K.f.A .     o E m.K.K.K.n.    ",
"  r L.K.K.K.K.W.q.S @         # R Q $       s e.L.K.K.K.K.a.    ",
"  < W.K.K.K.K.K.K.K.M.` 7               ; X.G.K.K.K.K.K.K.1.    ",
"    '.K.K.K.K.K.K.K.K.K.E.6.I .       T b.K.K.K.K.K.K.K.K.;.    ",
"    j.K.K.K.K.K.K.K.K.K.K.K.K.9.    5 /.K.K.K.K.K.K.K.K.K. .    ",
"    r.K.K.K.K.K.K.K.K.K.K.K.K.t.    2 !.K.K.K.K.K.K.K.K.K.(     ",
"    >.K.K.K.K.K.K.K.K.K.K.K.K.t.    1 L.K.K.K.K.K.K.K.K.K.P     ",
"    @.K.K.K.K.K.K.K.K.K.K.K.K.t.    i K.K.K.K.K.K.K.K.K.K.N     ",
"    ..K.K.K.K.K.K.K.K.K.K.K.K.t.    n K.K.K.K.K.K.K.K.K.K.g     ",
"    / K.K.K.K.K.K.K.K.K.K.K.K.t.    h K.K.K.K.K.K.K.K.K.!.3     ",
"    F K.K.K.K.K.K.K.K.K.K.K.K.t.    p K.K.K.K.K.K.K.K.K.J.+     ",
"    c K.K.K.K.K.K.K.K.K.K.K.K.t.    q K.K.K.K.K.K.K.K.K.N.      ",
"    y K.K.K.K.K.K.K.K.K.K.K.K.t.    B K.K.K.K.K.K.K.K.!.$.      ",
"    ; v.K.K.K.K.K.K.K.K.K.K.K.t.    U K.K.K.K.K.K.K.D.L         ",
"      - [ c.K.K.K.K.K.K.K.K.K.t.    Z K.K.K.K.K.K.h.g           ",
"          5 O.S.K.K.K.K.K.K.K.t.    C K.K.K.K.K.7.>             ",
"              8 *.F.K.K.K.K.K.t.    M K.K.K.(.| X               ",
"                  u 3.R.K.K.K.t.    ' K.K.V.N                   ",
"                      k ,.U.K.t.    ] K.p.e                     ",
"                          v w.y.    ) -.=                       ",
"                              d     ,                           "
};
