/* XPM */
static char *play50[] = {
/* columns rows colors chars-per-pixel */
"50 50 219 2 ",
"   c #0CD40AEF0929",
".  c #0D1E0B5909B2",
"X  c #0D6C0BCA0A44",
"o  c #0D8E0BFC0A83",
"O  c #0DC50C4B0AEA",
"+  c #0E120CBC0B7B",
"@  c #0E580D200BFD",
"#  c #0EA00D870C82",
"$  c #0EA50D900C8C",
"%  c #0EE00DE50CFA",
"&  c #0F430E750DB4",
"*  c #0F7C0EC70E1D",
"=  c #0FA40F000E67",
"-  c #0FE10F590EDB",
";  c #102C0FC50F65",
":  c #1068101D0FD6",
">  c #10A0106D103E",
",  c #10BF109A1078",
"<  c #1110110F110F",
"1  c #115C117D119C",
"2  c #117B11AB11D7",
"3  c #11AF11F61239",
"4  c #120B127B12E4",
"5  c #123512B71331",
"6  c #12B1136B1418",
"7  c #12DE13AC146C",
"8  c #133F14381522",
"9  c #13D3150F1636",
"0  c #1416157016B3",
"q  c #146815E6174B",
"w  c #14B5165817DD",
"e  c #14F716B61857",
"r  c #154B173018F4",
"t  c #15F318231A2E",
"y  c #163E188F1AB9",
"u  c #165818B51AEA",
"i  c #16B7193E1B9A",
"p  c #16D8196E1BD7",
"a  c #170A19B61C35",
"s  c #17581A271CC6",
"d  c #17A01A8F1D4C",
"f  c #17B11AA91D6D",
"g  c #17FD1B161DFB",
"h  c #18791BCA1EE3",
"j  c #18EE1C731FBD",
"k  c #19351CDA2041",
"l  c #197A1D3F20C2",
"z  c #19B81D972135",
"x  c #19EC1DE32197",
"c  c #1A601E8B226F",
"v  c #1A711EA4228F",
"b  c #1A831EBE22B1",
"n  c #1AE21F482362",
"m  c #1B611FFF244F",
"M  c #1BF520D52562",
"N  c #1C2B212325C7",
"B  c #1C8721A92673",
"V  c #1CEB2239272C",
"C  c #1D6922F02819",
"Z  c #1DCD238028D3",
"A  c #1DEC23AD290C",
"S  c #1E8124852A23",
"D  c #1EA424B72A63",
"F  c #1F2B257C2B61",
"G  c #1F5025B22BA6",
"H  c #1F7825EC2BF1",
"J  c #1FB226402C5D",
"K  c #201C26D92D23",
"L  c #2099278D2E0A",
"P  c #213B28782F38",
"I  c #219A29022FEB",
"U  c #21D129513051",
"Y  c #222F29D93101",
"T  c #23492B71330E",
"R  c #237D2BBD3370",
"E  c #23D92C42341B",
"W  c #24532CF134FD",
"Q  c #25202E1B367E",
"!  c #25662E803700",
"~  c #258C2EB83747",
"^  c #26482FC738A5",
"/  c #2676300A38FB",
"(  c #26C6307E3991",
")  c #272631093A43",
"_  c #280932513BEB",
"`  c #28EF339F3D98",
"'  c #293C340E3E28",
"]  c #29A334A43EE9",
"[  c #29DC34F63F53",
"{  c #2A2B35693FE6",
"}  c #2A9B360A40B6",
"|  c #2AE8367A4147",
" . c #2B2636D441BB",
".. c #2B8137584265",
"X. c #2BB1379C42BC",
"o. c #2BD437CF42FE",
"O. c #2C9238E24460",
"+. c #2CE4395944FA",
"@. c #2E5F3B7E47BD",
"#. c #2E883BBA480B",
"$. c #2F173C884914",
"%. c #2F6F3D0849B9",
"&. c #2F8C3D3249EF",
"*. c #2FD43D9A4A76",
"=. c #301E3E054AFF",
"-. c #31483FB54D2C",
";. c #31793FFC4D87",
":. c #31CA40724E1E",
">. c #321C40E74EB6",
",. c #326B415A4F4A",
"<. c #32E342065029",
"1. c #334A429D50EA",
"2. c #338C42FC5165",
"3. c #340E43B85257",
"4. c #3474444C5316",
"5. c #34C144BC53A6",
"6. c #34CC44CB53BA",
"7. c #351E45435454",
"8. c #359945F6553A",
"9. c #35E9466855CE",
"0. c #35F6467B55E6",
"q. c #3686474C56F3",
"w. c #36CC47B05775",
"e. c #36FE47F957D3",
"r. c #38D64AA55B43",
"t. c #39684B795C55",
"y. c #39A84BD45CCB",
"u. c #39B44BE75CE3",
"i. c #39E74C305D40",
"p. c #3A634CE35E27",
"a. c #3B2E4E085FA2",
"s. c #3B794E75602E",
"d. c #3BBD4ED960AE",
"f. c #3C214F696168",
"g. c #3C9650126243",
"h. c #3D6F514C63D6",
"j. c #3DB451B16457",
"k. c #3DCA51D06480",
"l. c #3DE251F364AE",
"z. c #3E4A528B6571",
"x. c #3EA75310661C",
"c. c #3EF6538266B1",
"v. c #3F2553C76708",
"b. c #3F5B5416676E",
"n. c #3FF354F16888",
"m. c #405655806940",
"M. c #40E756536A50",
"N. c #418D57436B86",
"B. c #41D657AD6C0F",
"V. c #42A358D66D8D",
"C. c #42A958DD6D97",
"Z. c #432C599C6E8D",
"A. c #43865A1E6F34",
"S. c #43DA5A966FD0",
"D. c #44CC5BF67195",
"F. c #450F5C587212",
"G. c #46475E1A7457",
"H. c #46AB5EAB7511",
"J. c #46F65F18759E",
"K. c #47515F9B7646",
"L. c #478E5FF476B9",
"P. c #481860BB77BB",
"I. c #48796148786F",
"U. c #48DE61DB792D",
"Y. c #498162C67A5C",
"T. c #4A2863B87B93",
"R. c #4A5963FF7BF0",
"E. c #4AA5646D7C7C",
"W. c #4B1F651D7D5F",
"Q. c #4B7F65AA7E15",
"!. c #4BB365F37E74",
"~. c #4C2B66A27F55",
"^. c #4C7F671C7FF2",
"/. c #4CE467AE80AE",
"(. c #4D69686D81A5",
"). c #4E0D695B82D7",
"_. c #4E5D69CF836D",
"`. c #4E8D6A1583C7",
"'. c #4EC46A65842D",
"]. c #4EFA6AB28492",
"[. c #4F296AF684E9",
"{. c #4F8E6B8A85A7",
"}. c #502E6C7186D1",
"|. c #50686CC5873D",
" X c #50A46D1B87AC",
".X c #50F66D938847",
"XX c #51406DFD88CF",
"oX c #51906E718965",
"OX c #51E16EE789FD",
"+X c #52476F7A8ABB",
"@X c #52BC70258B96",
"#X c #531D70B18C4B",
"$X c #5375712F8CED",
"%X c #53BC71958D72",
"&X c #53E271CD8DBA",
"*X c #545772768E93",
"=X c #54A072E08F1C",
"-X c #54BD73098F51",
";X c #54F173568FB3",
":X c #553773BB9036",
">X c #5588743190CE",
",X c #55C57489913F",
"<X c #55EC74C19187",
"1X c #5624751291F0",
"2X c #568F75AD92B7",
"3X c #56CF760B9330",
"4X c #5709765D939B",
"5X c #576B76EC9452",
"6X c #57A3773C94BA",
"7X c #580477C8956F",
"8X c #583E781D95DB",
"9X c #589E78A8968F",
"0X c #5946799B97C9",
"qX c #597D79EA982E",
"wX c #59BA7A4398A1",
"eX c #59FF7AA79921",
"rX c #5A547B2399C0",
"tX c #5A9E7B8D9A49",
"yX c #5B5C7C9E9BAA",
/* pixels */
"1 1 1 - - & & O O               O O & & - 1 1 ; 1 1 ; 1 1 1 1 1 - 1 1 - 1 1 - 1 1 - 1 1 1 1 1 1 1 1 ",
"1 1 1 - 1 - - & & & & & O & & & & & & 1 - 1 1 1 1 1 1 1 1 ; 1 ; 1 1 1 1 1 1 1 1 1 1 1 1 1 - - 1 1 - ",
"1 1 1 1 1 1 1 1 6 1 1 1 1 1 6 1 6 1 1 1 1 1 1 1 ; 1 1 1 ; 1 1 1 1 1 1 1 - 1 1 1 1 1 ; 1 1 1 1 1 1 - ",
"; 1 1 1 1 8 q t t a g g g a g a t w q 8 1 1 1 1 1 ; ; 1 1 1 1 ; - 1 1 - 1 1 - 1 1 ; 1 1 1 1 - 1 1 1 ",
"- 1 1 1 w t h m Z G H J J J H G Z x h t 8 1 1 & & & - ; - 1 ; 1 1 - 1 1 1 1 - 1 ; 1 1 - 1 1 - 1 1 1 ",
"& 1 1 q t x Z U E _ ] } } } ] _ ~ U B x w 1 & & & & & & & & & - 1 - 1 1 1 1 1 1 1 1 1 1 1 1 1 1 1 1 ",
"& & 1 w h Z E ] %.1.8.8.e.e.8.:.%.] U B a 1 - O     O & & & & ; - 1 - 1 - 1 1 1 1 1 1 1 - 1 1 1 ; 1 ",
"& & 1 t x U ] :.r.l.m.Z.Z.Z.m.l.r.:.} U x 8 - O   O O & & & - ; 1 - 1 1 1 1 1 - - 1 1 - 1 1 - 1 1 1 ",
"  & 1 t B E *.r.m.L.W.`.`./.W.L.m.t.*.) Z t 1 & & & ; 1 1 1 1 1 1 1 1 1 - 1 1 1 - 1 1 - 1 1 1 1 ; 1 ",
"  & 1 a G _ 1.l.I.`.+X*X<X*X+X`.I.m.8.o.U n t q 8 q w w w q 8 6 6 1 1 1 ; 1 1 1 1 1 1 1 1 1 - 1 1 1 ",
"  & 6 a H ] 8.m.W.+X<X9XeX9X<X+X`.D.f.:.] U Z B m B B B B x h t q 6 1 - - & - - - 1 1 1 - 1 - 1 1 - ",
"  & 1 g J } 8.m.W.$X5XeXeXeX7X*X].I.m.t.:.} _ ) ~ ) ) ) E U G x t 6 ; & & & & & & & - & 1 - 1 1 1 1 ",
"  & 6 g H ] 8.B.~.$X9XeXeXeX9X:X+X~.G.m.p.8.3.1.1.1.1.:.*.} E J x q - & O   O O & & & & - 1 1 1 1 1 ",
"  & 1 g J ] 8.m.W.@X<X9X9X9X<X*X+X].W.G.Z.m.l.l.l.b.l.h.p.4.@.E B w 1 O     O & & & & & - 1 - 1 1 1 ",
"  O 1 a H ] 4.m.W.+X<X9X5X5X<X*X@X|.].`.W.I.I.I.I.W.I.L.Z.f.1.} U x 6 - & & & - - 1 1 1 1 1 1 1 - 1 ",
"  & 1 g G ] 4.b.I.+X*X<X<X<X:X*X$X+X+X+X|.|.|.|.+X+X+X].W.Z.t.%.E B a q 1 1 8 8 8 q 8 1 1 1 1 1 1 1 ",
"  & 1 g H _ 4.m.I.+X:X5X<X<X:X*X*X*X*X*X*X*X*X<X<X<X<X$X].I.l.8.} U G x x x x x n x g t w 8 1 1 1 1 ",
"  & 6 a H ] 4.b.I.+X:X<X<X<X:X*X*X:X:X<X<X<X<X7X7X9X7X<X+XW.D.s.:.@.) E E U E E E U G m h w 8 1 - & ",
"  & 6 a G ] 4.m.W.+X:X<X5X<X:X*X*X:X<X<X<X5X<X5X7X9X7X<X$X].P.m.p.8.:.*.%.%.*.*.#.} ~ P B a q 1 & & ",
"  & 1 a H _ 4.m.I.+X<X<X<X<X*X*X*X*X<X*X<X<X<X<X<X5X<X<X$X|.~.P.Z.b.f.f.s.f.f.s.t.4.%.) J x w 6 & & ",
"  & 1 a G _ 4.b.W.+X*X<X<X<X<X*X*X*X:X*X<X*X<X<X<X<X<X:X$X+X]./.W.P.G.D.G.G.G.G.Z.l.8.@.U B t 1 & O ",
"  & 1 a G ] 4.m.I.+X<X<X5X<X:X*X*X*X*X*X*X*X*X*X*X*X*X*X*X$X+X+X|.].].].|.|.|.].~.D.s.-.) G a 1 &   ",
"  & 1 g H ] 8.m.I.+X*X<X<X<X*X*X*X*X*X*X*X*X*X*X*X*X*X*X*X*X$X$X*X$X$X*X<X<X<X*X+XI.b.3._ G a 6 &   ",
"  & 1 a H _ 4.m.I.+X:X5X<X<X:X*X*X*X*X*X*X*X*X*X*X*X*X*X*X*X*X<X<X5X<X5X9XeXeX5X$X~.Z.8.} H a 1 &   ",
"  & 6 a H _ 8.b.I.+X:X<X5X<X:X*X*X*X*X*X*X*X*X*X*X*X$X*X*X<X<X<X5X9X9X9XeXyXyXeX:X`.Z.8.} J a 6 &   ",
"  & 1 g H ] 4.m.I.+X:X<X<X<X:X*X*X*X*X*X*X*X*X*X*X*X*X*X*X<X<X<X5X9X9XeXyXyXeXeX<X`.Z.e.} J g 6 O   ",
"  & 1 a H _ 4.b.W.+X<X<X5X<X<X*X*X*X*X*X*X*X*X*X*X*X*X*X*X*X<X<X<X<X<X5X9XeXeX5X$X/.B.8.} J g 1 &   ",
"  & 1 a H ] 4.m.I.+X:X5X<X<X*X*X*X*X*X*X*X*X*X*X*X*X*X*X*X*X*X*X*X$X*X*X:X<X<X*X+XI.b.3.] H a 6 O   ",
"  & 1 g G _ 4.m.W.+X*X<X<X<X<X*X*X*X*X*X*X*X*X*X*X*X*X*X*X$X+X+X+X].`.].].|.|.].W.D.f.-.) G t 1 &   ",
"  & 6 a G ] 4.m.I.|.*X<X<X<X*X*X*X*X*X*X:X<X:X<X<X<X<X:X$X+X].~.I.I.G.G.G.L.G.G.Z.l.8.@.E B t 1 & O ",
"  & 6 a H _ 4.b.W.+X<X<X5X<X*X*X*X*X<X<X<X<X<X<X<X5X<X<X$X|.~.G.Z.b.h.s.f.f.f.s.t.8.@.) J x w 1 & & ",
"  & 1 a H ] 4.m.I.+X:X5X<X<X:X*X:X*X:X<X<X<X5X5X9X9X5X<X$X`.P.Z.p.8.-.%.%.*.*.%.@.} ) J B a q 1 & & ",
"  & 1 a G _ 8.m.I.+X:X<X<X<X:X*X*X*X<X:X<X<X<X5X7X9X5X<X+XW.D.p.1.o.) E U U E E E U G x g w 8 1 - - ",
"  & 1 a G ] 4.b.I.+X:X5X5X<X:X*X*X*X*X*X*X*X*X*X<X<X<X$X].P.l.8.} E G x x x x m x x g t w 8 1 1 1 ; ",
"  & 1 g G _ 4.m.W.+X*X<X5X<X*X*X$X@X+X+X+X|.|.+X+X+X+X`.W.Z.t.%.E B t q 1 6 8 8 w 8 6 6 1 1 1 1 1 - ",
"  & 1 a G ] 8.m.W.+X:X<X7X<X<X*X+X+X`.`.R.I.I.I.I.W.I.G.Z.f.1.} U h 8 & O & & & 1 1 1 - 1 1 1 1 1 ; ",
"  & 6 a J ] 8.m.W.$X<X9X9X9X<X<X+X].W.G.Z.m.l.l.l.b.l.l.p.1.@.E B t 1 O     O & & & & & 1 - 1 1 1 1 ",
"  & 1 g H } 8.B.~.$X9XeXeXeX5X:X+X/.G.b.p.8.1.:.1.1.1.:.*.} E G x q - &   O   & & & & & - 1 - 1 1 1 ",
"  & 1 a J ] 8.m.~.$X5XeXeXeX5X*X].I.m.r.:.o._ ) ~ ) ) ) E U H x t 8 1 & & & & & & & & 1 & 1 1 1 1 1 ",
"  & 1 a H ] 8.m.W.+X<X9XeX9X<X+X/.D.f.:.] U Z B B m B B B x x t q 1 1 - - - - - 1 1 - 1 1 1 - 1 - 1 ",
"  & 1 a G _ 1.l.G.`.+X*X<X*X+X`.I.m.8.} U m t q 8 q w w w q 8 8 1 1 1 1 1 1 1 1 1 ; 1 1 - 1 1 - 1 1 ",
"O & 6 t B E %.r.m.L.W.`.`./.W.L.B.t.*.) Z t 1 - & & ; 1 1 1 1 1 1 1 - 1 1 - 1 1 1 1 1 1 1 1 1 1 1 - ",
"& & 1 t m U ] :.t.l.m.Z.Z.Z.m.l.r.:.] P x q & O   O O & & & - ; 1 1 1 1 - 1 1 - 1 1 1 - 1 1 1 1 1 1 ",
"& & 1 q h Z E } %.1.8.8.e.8.8.1.%.] U B a 1 & O   O O & & & & - - - - 1 1 1 1 1 1 - 1 1 - 1 1 - 1 1 ",
"& - 1 8 t x Z U E _ ] } } } } _ E U G x w 1 & & & & & & & - - & 1 - 1 1 1 1 1 1 1 1 1 1 1 1 - 1 1 - ",
"- 1 1 1 q t h x Z G H J J J G G Z x g t 8 1 - & & & & - - - 1 1 1 1 - 1 - 1 1 ; 1 ; 1 1 1 1 1 1 1 1 ",
"1 1 1 1 6 8 w t t a g g g g a a a t q 8 6 1 1 1 1 - 1 1 - 1 1 - 1 1 1 1 1 1 1 1 ; 1 1 - - 1 1 - - 1 ",
"1 1 1 1 1 1 1 1 1 6 1 6 1 6 1 1 1 1 1 1 1 1 1 - 1 1 1 1 1 1 1 1 1 - 1 1 1 ; 1 ; 1 1 1 1 1 1 1 1 1 1 ",
"1 1 1 ; 1 1 & & & & & O & & O & & & - ; 1 1 ; 1 ; 1 1 - 1 1 1 1 1 - - 1 1 ; 1 1 1 ; 1 ; 1 1 1 1 1 - ",
"1 1 1 & & & & O O                 O & & - 1 1 1 1 1 1 1 1 1 1 - 1 1 1 1 1 1 ; 1 1 1 1 1 1 1 1 - 1 1 "
};
