/* XPM */
static char *voidtst[] = {
/* columns rows colors chars-per-pixel */
"50 50 3 1 ",
"  c None",
". c #478061",
"X c #ABC2AB",
/* pixels */
"                    XXXXXXXXXX                    ",
"                 XXXXXXXXXXXXXXXX                 ",
"              XXXXXXXXXXXXXXXXXXXXXX              ",
"            XXXXXXXXXXXXXXXXXXXXXXXXXX            ",
"           XXXXXXXXXXXXXXXXXXXXXXXXXXXX           ",
"           XXXXXXXXXXXXXXXXXXXXXXXXXXXXXX         ",
"            XXXXXXXXXXXXXXXXXXXXXXXXXXXXXX        ",
"             XXXXXXXXXXXXXXXXXXXXXXXXXXXXXX       ",
"              XXXXXXX        XXXXXXXXXXXXXXX      ",
"               XXX              XXXXXXXXXXXXX     ",
"                                  XXXXXXXXXXX     ",
"    ..                             XXXXXXXXXXX    ",
"   ....                              XXXXXXXXXX   ",
"   .....                              XXXXXXXXX   ",
"  .......                             XXXXXXXXXX  ",
"  ........                             XXXXXXXXX  ",
"  ........                              XXXXXXXX  ",
" .........            XXXXXX            XXXXXXXXX ",
" ........           XXXXXXXXXX           XXXXXXXX ",
" ........          XXXXXXXXXXXX          XXXXXXXX ",
".........         XXXXXXXXXXXXXX         XXXXXXXXX",
"........          XXXXXXXXXXXXXX          XXXXXXXX",
"........         XXXXXXXXXXXXXXXX         XXXXXXXX",
"........         XXXXXXXXXXXXXXXX         XXXXXXXX",
"........         XXXXXXXXXXXXXXXX         XXXXXXXX",
"........         XXXXXXXXXXXXXXXX         XXXXXXXX",
"........         XXXXXXXXXXXXXXXX         XXXXXXXX",
"........         XXXXXXXXXXXXXXXX         XXXXXXXX",
"........          XXXXXXXXXXXXXX          XXXXXXXX",
".........         XXXXXXXXXXXXXX         XXXXXXXX ",
" ........          XXXXXXXXXXXX          XXXXXXXX ",
" ........           XXXXXXXXXX           XXXXXXXX ",
" .........            XXXXXX            XXXXXXXXX ",
"  ........                              XXXXXXXX  ",
"  .........                             XXXXXXXX  ",
"  ..........                             XXXXXXX  ",
"   .........                              XXXXX   ",
"   ..........                              XXXX   ",
"    ...........                             XX    ",
"     ...........                                  ",
"     .............              ...               ",
"      ...............        .......              ",
"       ..............................             ",
"        ..............................            ",
"         ..............................           ",
"           ............................           ",
"            ..........................            ",
"              ......................              ",
"                 ................                 ",
"                    .........                     "
};
